<svg xmlns="http://www.w3.org/2000/svg" viewBox="0 0 512 512"><g transform="translate(256 256) scale(0.62) translate(-256 -256)">
<!-- FIREPLACE — the network node as a COIN: dark disc + fibonacci dot
     sphere (golden angle 2.39996323, F=2.6, tilt .35). Transparent
     outside the disc: identical on white, black, or anything else. -->
<circle cx="256" cy="256" r="252" fill="#0d1420"/>
<circle cx="256" cy="256" r="251.5" fill="none" stroke="#23303f" stroke-width="1.5"/>
<circle cx="262.9" cy="424.0" r="1.85" fill="#8fd8ff" fill-opacity="0.30"/>
<circle cx="257.3" cy="406.1" r="1.85" fill="#8fd8ff" fill-opacity="0.23"/>
<circle cx="237.7" cy="428.3" r="1.85" fill="#8fd8ff" fill-opacity="0.33"/>
<circle cx="284.9" cy="416.3" r="1.85" fill="#8fd8ff" fill-opacity="0.28"/>
<circle cx="232.4" cy="402.7" r="1.85" fill="#8fd8ff" fill-opacity="0.22"/>
<circle cx="260.0" cy="440.1" r="1.85" fill="#8fd8ff" fill-opacity="0.38"/>
<circle cx="278.1" cy="395.9" r="1.85" fill="#8fd8ff" fill-opacity="0.20"/>
<circle cx="213.9" cy="419.5" r="1.85" fill="#8fd8ff" fill-opacity="0.31"/>
<circle cx="296.1" cy="429.3" r="1.85" fill="#8fd8ff" fill-opacity="0.35"/>
<circle cx="243.9" cy="386.5" r="1.85" fill="#8fd8ff" fill-opacity="0.16"/>
<circle cx="231.7" cy="443.3" r="1.85" fill="#8fd8ff" fill-opacity="0.41"/>
<circle cx="303.1" cy="400.6" r="1.85" fill="#8fd8ff" fill-opacity="0.24"/>
<circle cx="207.2" cy="399.3" r="1.85" fill="#8fd8ff" fill-opacity="0.23"/>
<circle cx="283.4" cy="446.0" r="1.85" fill="#8fd8ff" fill-opacity="0.42"/>
<circle cx="271.0" cy="378.4" r="1.85" fill="#8fd8ff" fill-opacity="0.14"/>
<circle cx="201.0" cy="430.4" r="1.85" fill="#8fd8ff" fill-opacity="0.37"/>
<circle cx="318.5" cy="417.0" r="1.85" fill="#8fd8ff" fill-opacity="0.32"/>
<circle cx="221.5" cy="379.0" r="1.85" fill="#8fd8ff" fill-opacity="0.15"/>
<circle cx="247.6" cy="454.4" r="3.1" fill="#8fd8ff" fill-opacity="0.47"/>
<circle cx="303.1" cy="381.8" r="1.85" fill="#8fd8ff" fill-opacity="0.17"/>
<circle cx="186.9" cy="405.7" r="1.85" fill="#8fd8ff" fill-opacity="0.29"/>
<circle cx="312.2" cy="439.7" r="1.85" fill="#8fd8ff" fill-opacity="0.43"/>
<circle cx="252.0" cy="366.1" r="1.85" fill="#8fd8ff" fill-opacity="0.10"/>
<circle cx="203.9" cy="444.9" r="1.85" fill="#8fd8ff" fill-opacity="0.45"/>
<circle cx="329.2" cy="397.6" r="1.85" fill="#8fd8ff" fill-opacity="0.26"/>
<circle cx="196.7" cy="379.3" r="1.85" fill="#8fd8ff" fill-opacity="0.18"/>
<circle cx="277.6" cy="457.8" r="3.1" fill="#8fd8ff" fill-opacity="0.50"/>
<circle cx="290.2" cy="364.6" r="1.85" fill="#8fd8ff" fill-opacity="0.11"/>
<circle cx="175.0" cy="418.8" r="1.85" fill="#8fd8ff" fill-opacity="0.37"/>
<circle cx="336.7" cy="423.2" r="1.85" fill="#8fd8ff" fill-opacity="0.39"/>
<circle cx="226.4" cy="359.7" r="1.85" fill="#8fd8ff" fill-opacity="0.09"/>
<circle cx="223.6" cy="458.1" r="3.1" fill="#8fd8ff" fill-opacity="0.52"/>
<circle cx="326.6" cy="376.2" r="1.85" fill="#8fd8ff" fill-opacity="0.19"/>
<circle cx="173.8" cy="386.8" r="1.85" fill="#8fd8ff" fill-opacity="0.25"/>
<circle cx="313.3" cy="450.6" r="3.1" fill="#8fd8ff" fill-opacity="0.50"/>
<circle cx="267.9" cy="351.5" r="1.85" fill="#8fd8ff" fill-opacity="0.06"/>
<circle cx="176.0" cy="436.0" r="3.1" fill="#8fd8ff" fill-opacity="0.46"/>
<circle cx="349.7" cy="400.5" r="1.85" fill="#8fd8ff" fill-opacity="0.32"/>
<circle cx="198.2" cy="359.8" r="1.85" fill="#8fd8ff" fill-opacity="0.12"/>
<circle cx="258.5" cy="464.8" r="3.1" fill="#8fd8ff" fill-opacity="0.56"/>
<circle cx="312.0" cy="356.7" r="1.85" fill="#8fd8ff" fill-opacity="0.11"/>
<circle cx="157.2" cy="400.8" r="1.85" fill="#8fd8ff" fill-opacity="0.34"/>
<circle cx="345.0" cy="432.7" r="3.1" fill="#8fd8ff" fill-opacity="0.46"/>
<circle cx="193.9" cy="453.4" r="3.1" fill="#8fd8ff" fill-opacity="0.54"/>
<circle cx="348.8" cy="375.9" r="1.85" fill="#8fd8ff" fill-opacity="0.23"/>
<circle cx="170.9" cy="366.5" r="1.85" fill="#8fd8ff" fill-opacity="0.19"/>
<circle cx="301.9" cy="460.4" r="3.1" fill="#8fd8ff" fill-opacity="0.57"/>
<circle cx="288.1" cy="341.2" r="1.85" fill="#8fd8ff" fill-opacity="0.05"/>
<circle cx="152.1" cy="419.8" r="1.85" fill="#8fd8ff" fill-opacity="0.44"/>
<circle cx="364.6" cy="407.5" r="1.85" fill="#8fd8ff" fill-opacity="0.39"/>
<circle cx="208.1" cy="342.1" r="1.85" fill="#8fd8ff" fill-opacity="0.07"/>
<circle cx="229.8" cy="465.6" r="3.1" fill="#8fd8ff" fill-opacity="0.60"/>
<circle cx="335.0" cy="353.2" r="1.85" fill="#8fd8ff" fill-opacity="0.14"/>
<circle cx="148.3" cy="379.7" r="1.85" fill="#8fd8ff" fill-opacity="0.28"/>
<circle cx="343.3" cy="443.7" r="3.1" fill="#8fd8ff" fill-opacity="0.54"/>
<circle cx="163.7" cy="440.9" r="3.1" fill="#8fd8ff" fill-opacity="0.53"/>
<circle cx="368.6" cy="379.7" r="1.85" fill="#8fd8ff" fill-opacity="0.30"/>
<circle cx="176.4" cy="346.8" r="1.85" fill="#8fd8ff" fill-opacity="0.13"/>
<circle cx="278.8" cy="466.9" r="3.1" fill="#8fd8ff" fill-opacity="0.62"/>
<circle cx="310.9" cy="334.7" r="1.85" fill="#8fd8ff" fill-opacity="0.06"/>
<circle cx="135.2" cy="398.9" r="1.85" fill="#8fd8ff" fill-opacity="0.40"/>
<circle cx="372.6" cy="417.5" r="3.1" fill="#8fd8ff" fill-opacity="0.47"/>
<circle cx="195.5" cy="459.1" r="3.1" fill="#8fd8ff" fill-opacity="0.61"/>
<circle cx="357.7" cy="353.5" r="1.85" fill="#8fd8ff" fill-opacity="0.19"/>
<circle cx="147.9" cy="358.0" r="1.85" fill="#8fd8ff" fill-opacity="0.22"/>
<circle cx="330.3" cy="454.2" r="3.1" fill="#8fd8ff" fill-opacity="0.61"/>
<circle cx="137.4" cy="421.9" r="3.1" fill="#8fd8ff" fill-opacity="0.51"/>
<circle cx="384.4" cy="387.0" r="1.85" fill="#8fd8ff" fill-opacity="0.38"/>
<circle cx="188.7" cy="328.7" r="1.85" fill="#8fd8ff" fill-opacity="0.07"/>
<circle cx="245.9" cy="467.9" r="3.1" fill="#8fd8ff" fill-opacity="0.66"/>
<circle cx="335.0" cy="331.5" r="1.85" fill="#8fd8ff" fill-opacity="0.10"/>
<circle cx="126.7" cy="375.6" r="1.85" fill="#8fd8ff" fill-opacity="0.34"/>
<circle cx="371.7" cy="429.2" r="3.1" fill="#8fd8ff" fill-opacity="0.55"/>
<circle cx="160.6" cy="445.0" r="3.1" fill="#8fd8ff" fill-opacity="0.61"/>
<circle cx="378.9" cy="357.3" r="1.85" fill="#8fd8ff" fill-opacity="0.26"/>
<circle cx="155.2" cy="337.1" r="1.85" fill="#8fd8ff" fill-opacity="0.16"/>
<circle cx="305.5" cy="462.1" r="3.1" fill="#8fd8ff" fill-opacity="0.67"/>
<circle cx="118.5" cy="398.7" r="3.1" fill="#8fd8ff" fill-opacity="0.46"/>
<circle cx="394.5" cy="397.2" r="3.1" fill="#8fd8ff" fill-opacity="0.46"/>
<circle cx="206.7" cy="461.6" r="3.1" fill="#8fd8ff" fill-opacity="0.68"/>
<circle cx="359.2" cy="331.6" r="1.85" fill="#8fd8ff" fill-opacity="0.15"/>
<circle cx="126.8" cy="352.1" r="1.85" fill="#8fd8ff" fill-opacity="0.27"/>
<circle cx="360.0" cy="441.0" r="3.1" fill="#8fd8ff" fill-opacity="0.63"/>
<circle cx="129.9" cy="424.5" r="3.1" fill="#8fd8ff" fill-opacity="0.58"/>
<circle cx="397.1" cy="364.2" r="1.85" fill="#8fd8ff" fill-opacity="0.35"/>
<circle cx="168.9" cy="318.1" r="1.85" fill="#8fd8ff" fill-opacity="0.09"/>
<circle cx="269.9" cy="464.8" r="3.1" fill="#8fd8ff" fill-opacity="0.71"/>
<circle cx="329.3" cy="311.5" r="1.85" fill="#8fd8ff" fill-opacity="0.05"/>
<circle cx="108.5" cy="373.3" r="1.85" fill="#8fd8ff" fill-opacity="0.40"/>
<circle cx="396.6" cy="409.3" r="3.1" fill="#8fd8ff" fill-opacity="0.55"/>
<circle cx="166.1" cy="447.5" r="3.1" fill="#8fd8ff" fill-opacity="0.68"/>
<circle cx="382.3" cy="334.7" r="1.85" fill="#8fd8ff" fill-opacity="0.22"/>
<circle cx="134.6" cy="329.7" r="1.85" fill="#8fd8ff" fill-opacity="0.20"/>
<circle cx="336.0" cy="450.8" r="3.1" fill="#8fd8ff" fill-opacity="0.69"/>
<circle cx="107.0" cy="399.4" r="3.1" fill="#8fd8ff" fill-opacity="0.54"/>
<circle cx="410.3" cy="374.0" r="1.85" fill="#8fd8ff" fill-opacity="0.44"/>
<circle cx="226.5" cy="460.3" r="3.1" fill="#8fd8ff" fill-opacity="0.73"/>
<circle cx="355.0" cy="310.7" r="1.85" fill="#8fd8ff" fill-opacity="0.11"/>
<circle cx="107.6" cy="348.0" r="1.85" fill="#8fd8ff" fill-opacity="0.33"/>
<circle cx="388.2" cy="422.1" r="3.1" fill="#8fd8ff" fill-opacity="0.63"/>
<circle cx="129.5" cy="426.5" r="3.1" fill="#8fd8ff" fill-opacity="0.65"/>
<circle cx="403.2" cy="340.7" r="1.85" fill="#8fd8ff" fill-opacity="0.31"/>
<circle cx="148.8" cy="309.5" r="1.85" fill="#8fd8ff" fill-opacity="0.13"/>
<circle cx="299.8" cy="455.9" r="3.1" fill="#8fd8ff" fill-opacity="0.75"/>
<circle cx="93.9" cy="372.3" r="3.1" fill="#8fd8ff" fill-opacity="0.47"/>
<circle cx="416.5" cy="385.9" r="3.1" fill="#8fd8ff" fill-opacity="0.53"/>
<circle cx="180.2" cy="447.5" r="3.1" fill="#8fd8ff" fill-opacity="0.74"/>
<circle cx="380.2" cy="312.8" r="1.85" fill="#8fd8ff" fill-opacity="0.18"/>
<circle cx="114.9" cy="324.1" r="1.85" fill="#8fd8ff" fill-opacity="0.25"/>
<circle cx="367.3" cy="433.5" r="3.1" fill="#8fd8ff" fill-opacity="0.71"/>
<circle cx="101.1" cy="400.4" r="3.1" fill="#8fd8ff" fill-opacity="0.61"/>
<circle cx="419.9" cy="349.4" r="1.85" fill="#8fd8ff" fill-opacity="0.41"/>
<circle cx="168.1" cy="291.9" r="1.85" fill="#8fd8ff" fill-opacity="0.06"/>
<circle cx="253.7" cy="454.1" r="3.1" fill="#8fd8ff" fill-opacity="0.78"/>
<circle cx="346.6" cy="291.3" r="1.85" fill="#8fd8ff" fill-opacity="0.07"/>
<circle cx="90.7" cy="345.2" r="1.85" fill="#8fd8ff" fill-opacity="0.40"/>
<circle cx="412.9" cy="398.8" r="3.1" fill="#8fd8ff" fill-opacity="0.62"/>
<circle cx="136.9" cy="427.0" r="3.1" fill="#8fd8ff" fill-opacity="0.72"/>
<circle cx="403.5" cy="317.5" r="1.85" fill="#8fd8ff" fill-opacity="0.27"/>
<circle cx="129.0" cy="302.4" r="1.85" fill="#8fd8ff" fill-opacity="0.18"/>
<circle cx="333.0" cy="441.1" r="3.1" fill="#8fd8ff" fill-opacity="0.77"/>
<circle cx="83.4" cy="371.8" r="3.1" fill="#8fd8ff" fill-opacity="0.55"/>
<circle cx="430.5" cy="360.4" r="3.1" fill="#8fd8ff" fill-opacity="0.50"/>
<circle cx="202.4" cy="443.7" r="3.1" fill="#8fd8ff" fill-opacity="0.79"/>
<circle cx="373.4" cy="292.1" r="1.85" fill="#8fd8ff" fill-opacity="0.14"/>
<circle cx="96.6" cy="319.6" r="1.85" fill="#8fd8ff" fill-opacity="0.32"/>
<circle cx="396.9" cy="411.2" r="3.1" fill="#8fd8ff" fill-opacity="0.71"/>
<circle cx="101.7" cy="400.6" r="3.1" fill="#8fd8ff" fill-opacity="0.68"/>
<circle cx="423.6" cy="324.7" r="1.85" fill="#8fd8ff" fill-opacity="0.36"/>
<circle cx="148.4" cy="283.6" r="1.85" fill="#8fd8ff" fill-opacity="0.10"/>
<circle cx="286.6" cy="442.4" r="3.1" fill="#8fd8ff" fill-opacity="0.81"/>
<circle cx="76.7" cy="343.0" r="3.1" fill="#8fd8ff" fill-opacity="0.47"/>
<circle cx="432.3" cy="372.8" r="3.1" fill="#8fd8ff" fill-opacity="0.60"/>
<circle cx="152.3" cy="424.9" r="3.1" fill="#8fd8ff" fill-opacity="0.78"/>
<circle cx="398.9" cy="295.2" r="1.85" fill="#8fd8ff" fill-opacity="0.22"/>
<circle cx="109.8" cy="296.5" r="1.85" fill="#8fd8ff" fill-opacity="0.23"/>
<circle cx="366.8" cy="420.9" r="3.1" fill="#8fd8ff" fill-opacity="0.77"/>
<circle cx="77.9" cy="371.2" r="3.1" fill="#8fd8ff" fill-opacity="0.62"/>
<circle cx="438.5" cy="334.2" r="3.1" fill="#8fd8ff" fill-opacity="0.47"/>
<circle cx="232.0" cy="435.3" r="3.1" fill="#8fd8ff" fill-opacity="0.83"/>
<circle cx="363.0" cy="272.8" r="1.85" fill="#8fd8ff" fill-opacity="0.09"/>
<circle cx="80.1" cy="315.8" r="1.85" fill="#8fd8ff" fill-opacity="0.39"/>
<circle cx="422.4" cy="385.3" r="3.1" fill="#8fd8ff" fill-opacity="0.69"/>
<circle cx="109.6" cy="399.3" r="3.1" fill="#8fd8ff" fill-opacity="0.74"/>
<circle cx="421.9" cy="300.8" r="1.85" fill="#8fd8ff" fill-opacity="0.32"/>
<circle cx="128.9" cy="276.3" r="1.85" fill="#8fd8ff" fill-opacity="0.15"/>
<circle cx="322.6" cy="425.1" r="3.1" fill="#8fd8ff" fill-opacity="0.83"/>
<circle cx="66.4" cy="341.1" r="3.1" fill="#8fd8ff" fill-opacity="0.55"/>
<circle cx="445.7" cy="345.3" r="3.1" fill="#8fd8ff" fill-opacity="0.57"/>
<circle cx="175.9" cy="419.2" r="3.1" fill="#8fd8ff" fill-opacity="0.83"/>
<circle cx="390.3" cy="274.3" r="1.85" fill="#8fd8ff" fill-opacity="0.18"/>
<circle cx="91.8" cy="291.2" r="1.85" fill="#8fd8ff" fill-opacity="0.30"/>
<circle cx="398.3" cy="396.1" r="3.1" fill="#8fd8ff" fill-opacity="0.77"/>
<circle cx="78.5" cy="369.6" r="3.1" fill="#8fd8ff" fill-opacity="0.69"/>
<circle cx="440.6" cy="308.4" r="1.85" fill="#8fd8ff" fill-opacity="0.42"/>
<circle cx="152.2" cy="259.0" r="1.85" fill="#8fd8ff" fill-opacity="0.08"/>
<circle cx="267.3" cy="421.5" r="3.1" fill="#8fd8ff" fill-opacity="0.86"/>
<circle cx="349.7" cy="255.0" r="1.85" fill="#8fd8ff" fill-opacity="0.06"/>
<circle cx="66.2" cy="312.4" r="3.1" fill="#8fd8ff" fill-opacity="0.46"/>
<circle cx="442.3" cy="357.1" r="3.1" fill="#8fd8ff" fill-opacity="0.67"/>
<circle cx="125.4" cy="395.3" r="3.1" fill="#8fd8ff" fill-opacity="0.80"/>
<circle cx="415.6" cy="278.0" r="1.85" fill="#8fd8ff" fill-opacity="0.27"/>
<circle cx="109.9" cy="269.7" r="1.85" fill="#8fd8ff" fill-opacity="0.22"/>
<circle cx="358.9" cy="402.6" r="3.1" fill="#8fd8ff" fill-opacity="0.83"/>
<circle cx="60.7" cy="338.7" r="3.1" fill="#8fd8ff" fill-opacity="0.62"/>
<circle cx="452.8" cy="317.7" r="3.1" fill="#8fd8ff" fill-opacity="0.53"/>
<circle cx="206.9" cy="408.9" r="3.1" fill="#8fd8ff" fill-opacity="0.87"/>
<circle cx="378.4" cy="255.0" r="1.85" fill="#8fd8ff" fill-opacity="0.13"/>
<circle cx="75.4" cy="286.4" r="1.85" fill="#8fd8ff" fill-opacity="0.37"/>
<circle cx="425.3" cy="368.0" r="3.1" fill="#8fd8ff" fill-opacity="0.75"/>
<circle cx="86.0" cy="366.3" r="3.1" fill="#8fd8ff" fill-opacity="0.76"/>
<circle cx="437.5" cy="283.7" r="1.85" fill="#8fd8ff" fill-opacity="0.38"/>
<circle cx="132.8" cy="251.2" r="1.85" fill="#8fd8ff" fill-opacity="0.14"/>
<circle cx="305.7" cy="402.2" r="3.1" fill="#8fd8ff" fill-opacity="0.87"/>
<circle cx="55.7" cy="308.9" r="3.1" fill="#8fd8ff" fill-opacity="0.54"/>
<circle cx="455.7" cy="328.1" r="3.1" fill="#8fd8ff" fill-opacity="0.63"/>
<circle cx="149.3" cy="387.7" r="3.1" fill="#8fd8ff" fill-opacity="0.85"/>
<circle cx="405.6" cy="256.8" r="1.85" fill="#8fd8ff" fill-opacity="0.23"/>
<circle cx="92.1" cy="263.5" r="1.85" fill="#8fd8ff" fill-opacity="0.28"/>
<circle cx="392.7" cy="375.8" r="3.1" fill="#8fd8ff" fill-opacity="0.83"/>
<circle cx="60.8" cy="335.2" r="3.1" fill="#8fd8ff" fill-opacity="0.69"/>
<circle cx="454.0" cy="291.0" r="3.1" fill="#8fd8ff" fill-opacity="0.49"/>
<circle cx="159.1" cy="235.7" r="1.85" fill="#8fd8ff" fill-opacity="0.07"/>
<circle cx="243.8" cy="393.3" r="3.1" fill="#8fd8ff" fill-opacity="0.89"/>
<circle cx="364.0" cy="237.1" r="1.85" fill="#8fd8ff" fill-opacity="0.10"/>
<circle cx="61.6" cy="281.5" r="3.1" fill="#8fd8ff" fill-opacity="0.45"/>
<circle cx="446.2" cy="338.1" r="3.1" fill="#8fd8ff" fill-opacity="0.73"/>
<circle cx="101.4" cy="360.3" r="3.1" fill="#8fd8ff" fill-opacity="0.81"/>
<circle cx="430.0" cy="260.5" r="1.85" fill="#8fd8ff" fill-opacity="0.33"/>
<circle cx="114.1" cy="243.9" r="1.85" fill="#8fd8ff" fill-opacity="0.20"/>
<circle cx="344.4" cy="378.0" r="3.1" fill="#8fd8ff" fill-opacity="0.88"/>
<circle cx="49.7" cy="304.6" r="3.1" fill="#8fd8ff" fill-opacity="0.62"/>
<circle cx="462.6" cy="299.3" r="3.1" fill="#8fd8ff" fill-opacity="0.59"/>
<circle cx="180.7" cy="375.6" r="3.1" fill="#8fd8ff" fill-opacity="0.89"/>
<circle cx="392.5" cy="237.2" r="1.85" fill="#8fd8ff" fill-opacity="0.18"/>
<circle cx="76.0" cy="257.4" r="1.85" fill="#8fd8ff" fill-opacity="0.36"/>
<circle cx="421.4" cy="346.1" r="3.1" fill="#8fd8ff" fill-opacity="0.81"/>
<circle cx="67.7" cy="329.7" r="3.1" fill="#8fd8ff" fill-opacity="0.76"/>
<circle cx="450.0" cy="265.5" r="1.85" fill="#8fd8ff" fill-opacity="0.44"/>
<circle cx="140.0" cy="227.3" r="1.85" fill="#8fd8ff" fill-opacity="0.13"/>
<circle cx="283.9" cy="372.5" r="3.1" fill="#8fd8ff" fill-opacity="0.91"/>
<circle cx="347.6" cy="220.6" r="1.85" fill="#8fd8ff" fill-opacity="0.07"/>
<circle cx="51.1" cy="276.2" r="3.1" fill="#8fd8ff" fill-opacity="0.53"/>
<circle cx="460.1" cy="307.8" r="3.1" fill="#8fd8ff" fill-opacity="0.69"/>
<circle cx="124.8" cy="350.6" r="3.1" fill="#8fd8ff" fill-opacity="0.86"/>
<circle cx="418.8" cy="238.9" r="1.85" fill="#8fd8ff" fill-opacity="0.28"/>
<circle cx="96.6" cy="236.6" r="1.85" fill="#8fd8ff" fill-opacity="0.27"/>
<circle cx="380.2" cy="349.7" r="3.1" fill="#8fd8ff" fill-opacity="0.87"/>
<circle cx="49.3" cy="298.9" r="3.1" fill="#8fd8ff" fill-opacity="0.69"/>
<circle cx="463.3" cy="271.7" r="3.1" fill="#8fd8ff" fill-opacity="0.55"/>
<circle cx="168.3" cy="213.4" r="1.85" fill="#8fd8ff" fill-opacity="0.07"/>
<circle cx="218.1" cy="358.4" r="3.1" fill="#8fd8ff" fill-opacity="0.92"/>
<circle cx="377.1" cy="219.2" r="1.85" fill="#8fd8ff" fill-opacity="0.15"/>
<circle cx="62.4" cy="251.0" r="1.85" fill="#8fd8ff" fill-opacity="0.44"/>
<circle cx="443.6" cy="315.0" r="3.1" fill="#8fd8ff" fill-opacity="0.78"/>
<circle cx="82.2" cy="321.4" r="3.1" fill="#8fd8ff" fill-opacity="0.82"/>
<circle cx="441.5" cy="241.9" r="1.85" fill="#8fd8ff" fill-opacity="0.39"/>
<circle cx="121.6" cy="219.0" r="1.85" fill="#8fd8ff" fill-opacity="0.19"/>
<circle cx="324.2" cy="346.9" r="3.1" fill="#8fd8ff" fill-opacity="0.91"/>
<circle cx="45.0" cy="269.9" r="3.1" fill="#8fd8ff" fill-opacity="0.60"/>
<circle cx="467.1" cy="278.1" r="3.1" fill="#8fd8ff" fill-opacity="0.65"/>
<circle cx="155.8" cy="336.6" r="3.1" fill="#8fd8ff" fill-opacity="0.90"/>
<circle cx="404.8" cy="219.1" r="1.85" fill="#8fd8ff" fill-opacity="0.24"/>
<circle cx="80.9" cy="229.2" r="1.85" fill="#8fd8ff" fill-opacity="0.34"/>
<circle cx="410.7" cy="318.9" r="3.1" fill="#8fd8ff" fill-opacity="0.85"/>
<circle cx="55.5" cy="291.0" r="3.1" fill="#8fd8ff" fill-opacity="0.75"/>
<circle cx="458.6" cy="245.7" r="3.1" fill="#8fd8ff" fill-opacity="0.50"/>
<circle cx="149.5" cy="204.3" r="1.85" fill="#8fd8ff" fill-opacity="0.12"/>
<circle cx="259.0" cy="336.2" r="3.1" fill="#8fd8ff" fill-opacity="0.93"/>
<circle cx="359.9" cy="202.6" r="1.85" fill="#8fd8ff" fill-opacity="0.12"/>
<circle cx="52.1" cy="243.9" r="3.1" fill="#8fd8ff" fill-opacity="0.51"/>
<circle cx="458.3" cy="283.8" r="3.1" fill="#8fd8ff" fill-opacity="0.75"/>
<circle cx="104.7" cy="309.5" r="3.1" fill="#8fd8ff" fill-opacity="0.87"/>
<circle cx="429.4" cy="220.0" r="1.85" fill="#8fd8ff" fill-opacity="0.34"/>
<circle cx="104.6" cy="210.7" r="1.85" fill="#8fd8ff" fill-opacity="0.26"/>
<circle cx="361.6" cy="317.7" r="3.1" fill="#8fd8ff" fill-opacity="0.91"/>
<circle cx="44.4" cy="261.9" r="3.1" fill="#8fd8ff" fill-opacity="0.67"/>
<circle cx="467.6" cy="249.9" r="3.1" fill="#8fd8ff" fill-opacity="0.61"/>
<circle cx="179.3" cy="191.9" r="1.85" fill="#8fd8ff" fill-opacity="0.07"/>
<circle cx="192.9" cy="317.7" r="3.1" fill="#8fd8ff" fill-opacity="0.93"/>
<circle cx="388.5" cy="200.8" r="1.85" fill="#8fd8ff" fill-opacity="0.20"/>
<circle cx="67.9" cy="221.3" r="1.85" fill="#8fd8ff" fill-opacity="0.42"/>
<circle cx="434.0" cy="287.1" r="3.1" fill="#8fd8ff" fill-opacity="0.83"/>
<circle cx="69.3" cy="280.4" r="3.1" fill="#8fd8ff" fill-opacity="0.81"/>
<circle cx="449.4" cy="221.7" r="3.1" fill="#8fd8ff" fill-opacity="0.45"/>
<circle cx="131.8" cy="195.1" r="1.85" fill="#8fd8ff" fill-opacity="0.19"/>
<circle cx="300.1" cy="309.6" r="3.1" fill="#8fd8ff" fill-opacity="0.94"/>
<circle cx="341.5" cy="187.2" r="1.85" fill="#8fd8ff" fill-opacity="0.10"/>
<circle cx="46.3" cy="235.4" r="3.1" fill="#8fd8ff" fill-opacity="0.59"/>
<circle cx="465.5" cy="253.6" r="3.1" fill="#8fd8ff" fill-opacity="0.71"/>
<circle cx="134.7" cy="293.5" r="3.1" fill="#8fd8ff" fill-opacity="0.90"/>
<circle cx="414.5" cy="199.9" r="1.85" fill="#8fd8ff" fill-opacity="0.30"/>
<circle cx="89.7" cy="202.0" r="1.85" fill="#8fd8ff" fill-opacity="0.33"/>
<circle cx="393.3" cy="286.2" r="3.1" fill="#8fd8ff" fill-opacity="0.89"/>
<circle cx="50.3" cy="251.7" r="3.1" fill="#8fd8ff" fill-opacity="0.74"/>
<circle cx="462.4" cy="223.6" r="3.1" fill="#8fd8ff" fill-opacity="0.56"/>
<circle cx="161.0" cy="182.0" r="1.85" fill="#8fd8ff" fill-opacity="0.13"/>
<circle cx="233.5" cy="294.2" r="3.1" fill="#8fd8ff" fill-opacity="0.95"/>
<circle cx="370.6" cy="184.0" r="1.85" fill="#8fd8ff" fill-opacity="0.18"/>
<circle cx="58.4" cy="212.3" r="3.1" fill="#8fd8ff" fill-opacity="0.50"/>
<circle cx="449.4" cy="255.4" r="3.1" fill="#8fd8ff" fill-opacity="0.79"/>
<circle cx="90.8" cy="266.2" r="3.1" fill="#8fd8ff" fill-opacity="0.86"/>
<circle cx="436.4" cy="199.6" r="1.85" fill="#8fd8ff" fill-opacity="0.41"/>
<circle cx="115.6" cy="185.7" r="1.85" fill="#8fd8ff" fill-opacity="0.26"/>
<circle cx="338.2" cy="279.7" r="3.1" fill="#8fd8ff" fill-opacity="0.93"/>
<circle cx="322.4" cy="172.8" r="1.85" fill="#8fd8ff" fill-opacity="0.09"/>
<circle cx="46.0" cy="225.2" r="3.1" fill="#8fd8ff" fill-opacity="0.66"/>
<circle cx="465.8" cy="225.0" r="3.1" fill="#8fd8ff" fill-opacity="0.66"/>
<circle cx="191.5" cy="170.9" r="1.85" fill="#8fd8ff" fill-opacity="0.09"/>
<circle cx="170.8" cy="272.9" r="3.1" fill="#8fd8ff" fill-opacity="0.93"/>
<circle cx="397.4" cy="181.5" r="1.85" fill="#8fd8ff" fill-opacity="0.27"/>
<circle cx="77.7" cy="192.4" r="1.85" fill="#8fd8ff" fill-opacity="0.41"/>
<circle cx="417.5" cy="254.1" r="3.1" fill="#8fd8ff" fill-opacity="0.86"/>
<circle cx="272.4" cy="165.6" r="1.85" fill="#8fd8ff" fill-opacity="0.05"/>
<circle cx="63.7" cy="238.5" r="3.1" fill="#8fd8ff" fill-opacity="0.79"/>
<circle cx="452.4" cy="199.3" r="3.1" fill="#8fd8ff" fill-opacity="0.51"/>
<circle cx="144.1" cy="171.9" r="1.85" fill="#8fd8ff" fill-opacity="0.19"/>
<circle cx="274.3" cy="266.9" r="3.1" fill="#8fd8ff" fill-opacity="0.95"/>
<circle cx="351.6" cy="168.3" r="1.85" fill="#8fd8ff" fill-opacity="0.16"/>
<circle cx="53.5" cy="201.8" r="3.1" fill="#8fd8ff" fill-opacity="0.57"/>
<circle cx="456.8" cy="225.1" r="3.1" fill="#8fd8ff" fill-opacity="0.75"/>
<circle cx="222.4" cy="161.5" r="1.85" fill="#8fd8ff" fill-opacity="0.07"/>
<circle cx="119.8" cy="248.0" r="3.1" fill="#8fd8ff" fill-opacity="0.89"/>
<circle cx="420.6" cy="179.3" r="1.85" fill="#8fd8ff" fill-opacity="0.37"/>
<circle cx="101.9" cy="175.6" r="1.85" fill="#8fd8ff" fill-opacity="0.33"/>
<circle cx="370.3" cy="248.1" r="3.1" fill="#8fd8ff" fill-opacity="0.91"/>
<circle cx="302.9" cy="159.3" r="1.85" fill="#8fd8ff" fill-opacity="0.09"/>
<circle cx="52.4" cy="212.6" r="3.1" fill="#8fd8ff" fill-opacity="0.72"/>
<circle cx="460.0" cy="198.6" r="3.1" fill="#8fd8ff" fill-opacity="0.62"/>
<circle cx="174.0" cy="160.2" r="1.85" fill="#8fd8ff" fill-opacity="0.15"/>
<circle cx="210.2" cy="248.3" r="3.1" fill="#8fd8ff" fill-opacity="0.94"/>
<circle cx="378.8" cy="164.4" r="1.85" fill="#8fd8ff" fill-opacity="0.24"/>
<circle cx="69.5" cy="181.7" r="3.1" fill="#8fd8ff" fill-opacity="0.48"/>
<circle cx="433.0" cy="222.5" r="3.1" fill="#8fd8ff" fill-opacity="0.83"/>
<circle cx="253.3" cy="153.4" r="1.85" fill="#8fd8ff" fill-opacity="0.08"/>
<circle cx="84.7" cy="222.1" r="3.1" fill="#8fd8ff" fill-opacity="0.84"/>
<circle cx="438.6" cy="177.1" r="3.1" fill="#8fd8ff" fill-opacity="0.47"/>
<circle cx="129.2" cy="161.3" r="1.85" fill="#8fd8ff" fill-opacity="0.26"/>
<circle cx="311.9" cy="236.8" r="3.1" fill="#8fd8ff" fill-opacity="0.94"/>
<circle cx="332.0" cy="153.7" r="1.85" fill="#8fd8ff" fill-opacity="0.15"/>
<circle cx="54.4" cy="189.5" r="3.1" fill="#8fd8ff" fill-opacity="0.64"/>
<circle cx="456.7" cy="196.6" r="3.1" fill="#8fd8ff" fill-opacity="0.71"/>
<circle cx="204.5" cy="150.2" r="1.85" fill="#8fd8ff" fill-opacity="0.12"/>
<circle cx="154.5" cy="225.9" r="3.1" fill="#8fd8ff" fill-opacity="0.92"/>
<circle cx="402.6" cy="160.7" r="1.85" fill="#8fd8ff" fill-opacity="0.33"/>
<circle cx="91.4" cy="164.5" r="1.85" fill="#8fd8ff" fill-opacity="0.40"/>
<circle cx="394.3" cy="216.2" r="3.1" fill="#8fd8ff" fill-opacity="0.89"/>
<circle cx="283.4" cy="146.2" r="1.85" fill="#8fd8ff" fill-opacity="0.11"/>
<circle cx="66.2" cy="197.2" r="3.1" fill="#8fd8ff" fill-opacity="0.77"/>
<circle cx="449.2" cy="174.3" r="3.1" fill="#8fd8ff" fill-opacity="0.57"/>
<circle cx="158.3" cy="149.1" r="1.85" fill="#8fd8ff" fill-opacity="0.21"/>
<circle cx="249.7" cy="220.4" r="3.1" fill="#8fd8ff" fill-opacity="0.95"/>
<circle cx="359.1" cy="148.5" r="1.85" fill="#8fd8ff" fill-opacity="0.22"/>
<circle cx="66.4" cy="169.3" r="3.1" fill="#8fd8ff" fill-opacity="0.56"/>
<circle cx="440.0" cy="192.5" r="3.1" fill="#8fd8ff" fill-opacity="0.79"/>
<circle cx="234.9" cy="141.4" r="1.85" fill="#8fd8ff" fill-opacity="0.12"/>
<circle cx="112.9" cy="202.0" r="3.1" fill="#8fd8ff" fill-opacity="0.88"/>
<circle cx="421.7" cy="156.7" r="1.85" fill="#8fd8ff" fill-opacity="0.43"/>
<circle cx="117.2" cy="149.9" r="1.85" fill="#8fd8ff" fill-opacity="0.33"/>
<circle cx="343.2" cy="205.5" r="3.1" fill="#8fd8ff" fill-opacity="0.92"/>
<circle cx="312.3" cy="139.7" r="1.85" fill="#8fd8ff" fill-opacity="0.16"/>
<circle cx="62.1" cy="174.6" r="3.1" fill="#8fd8ff" fill-opacity="0.70"/>
<circle cx="450.0" cy="170.4" r="3.1" fill="#8fd8ff" fill-opacity="0.67"/>
<circle cx="188.1" cy="138.5" r="1.85" fill="#8fd8ff" fill-opacity="0.18"/>
<circle cx="192.3" cy="200.3" r="3.1" fill="#8fd8ff" fill-opacity="0.93"/>
<circle cx="383.1" cy="143.3" r="1.85" fill="#8fd8ff" fill-opacity="0.31"/>
<circle cx="85.5" cy="152.1" r="3.1" fill="#8fd8ff" fill-opacity="0.48"/>
<circle cx="409.1" cy="185.2" r="3.1" fill="#8fd8ff" fill-opacity="0.85"/>
<circle cx="264.6" cy="133.4" r="1.85" fill="#8fd8ff" fill-opacity="0.14"/>
<circle cx="87.6" cy="178.6" r="3.1" fill="#8fd8ff" fill-opacity="0.82"/>
<circle cx="434.1" cy="152.1" r="3.1" fill="#8fd8ff" fill-opacity="0.53"/>
<circle cx="145.1" cy="137.3" r="1.85" fill="#8fd8ff" fill-opacity="0.28"/>
<circle cx="285.6" cy="190.6" r="3.1" fill="#8fd8ff" fill-opacity="0.94"/>
<circle cx="339.0" cy="133.4" r="1.85" fill="#8fd8ff" fill-opacity="0.22"/>
<circle cx="69.6" cy="154.9" r="3.1" fill="#8fd8ff" fill-opacity="0.62"/>
<circle cx="438.8" cy="164.5" r="3.1" fill="#8fd8ff" fill-opacity="0.75"/>
<circle cx="217.9" cy="129.2" r="1.85" fill="#8fd8ff" fill-opacity="0.17"/>
<circle cx="146.4" cy="178.5" r="3.1" fill="#8fd8ff" fill-opacity="0.90"/>
<circle cx="402.5" cy="137.9" r="1.85" fill="#8fd8ff" fill-opacity="0.40"/>
<circle cx="109.2" cy="137.3" r="1.85" fill="#8fd8ff" fill-opacity="0.41"/>
<circle cx="365.7" cy="174.4" r="3.1" fill="#8fd8ff" fill-opacity="0.89"/>
<circle cx="292.8" cy="126.0" r="1.85" fill="#8fd8ff" fill-opacity="0.17"/>
<circle cx="77.6" cy="157.1" r="3.1" fill="#8fd8ff" fill-opacity="0.75"/>
<circle cx="437.5" cy="146.3" r="3.1" fill="#8fd8ff" fill-opacity="0.62"/>
<circle cx="174.1" cy="126.3" r="1.85" fill="#8fd8ff" fill-opacity="0.24"/>
<circle cx="229.6" cy="172.3" r="3.1" fill="#8fd8ff" fill-opacity="0.93"/>
<circle cx="362.5" cy="127.1" r="1.85" fill="#8fd8ff" fill-opacity="0.30"/>
<circle cx="85.3" cy="137.8" r="3.1" fill="#8fd8ff" fill-opacity="0.54"/>
<circle cx="414.5" cy="156.0" r="3.1" fill="#8fd8ff" fill-opacity="0.81"/>
<circle cx="246.9" cy="120.6" r="1.85" fill="#8fd8ff" fill-opacity="0.18"/>
<circle cx="115.9" cy="156.9" r="3.1" fill="#8fd8ff" fill-opacity="0.85"/>
<circle cx="415.5" cy="131.7" r="3.1" fill="#8fd8ff" fill-opacity="0.50"/>
<circle cx="135.7" cy="124.5" r="1.85" fill="#8fd8ff" fill-opacity="0.35"/>
<circle cx="314.5" cy="160.1" r="3.1" fill="#8fd8ff" fill-opacity="0.91"/>
<circle cx="318.8" cy="118.8" r="1.85" fill="#8fd8ff" fill-opacity="0.23"/>
<circle cx="80.3" cy="138.1" r="3.1" fill="#8fd8ff" fill-opacity="0.68"/>
<circle cx="430.1" cy="138.8" r="3.1" fill="#8fd8ff" fill-opacity="0.70"/>
<circle cx="203.0" cy="116.5" r="1.85" fill="#8fd8ff" fill-opacity="0.23"/>
<circle cx="182.5" cy="152.5" r="3.1" fill="#8fd8ff" fill-opacity="0.90"/>
<circle cx="381.4" cy="120.3" r="1.85" fill="#8fd8ff" fill-opacity="0.38"/>
<circle cx="106.7" cy="123.1" r="3.1" fill="#8fd8ff" fill-opacity="0.48"/>
<circle cx="378.3" cy="144.6" r="3.1" fill="#8fd8ff" fill-opacity="0.86"/>
<circle cx="274.3" cy="112.5" r="1.85" fill="#8fd8ff" fill-opacity="0.21"/>
<circle cx="100.8" cy="136.8" r="3.1" fill="#8fd8ff" fill-opacity="0.79"/>
<circle cx="420.2" cy="124.3" r="3.1" fill="#8fd8ff" fill-opacity="0.58"/>
<circle cx="163.6" cy="113.2" r="1.85" fill="#8fd8ff" fill-opacity="0.31"/>
<circle cx="262.6" cy="143.2" r="3.1" fill="#8fd8ff" fill-opacity="0.91"/>
<circle cx="341.3" cy="111.5" r="1.85" fill="#8fd8ff" fill-opacity="0.30"/>
<circle cx="92.6" cy="121.6" r="3.1" fill="#8fd8ff" fill-opacity="0.61"/>
<circle cx="410.7" cy="129.0" r="3.1" fill="#8fd8ff" fill-opacity="0.77"/>
<circle cx="231.1" cy="107.4" r="1.85" fill="#8fd8ff" fill-opacity="0.23"/>
<circle cx="149.2" cy="132.7" r="3.1" fill="#8fd8ff" fill-opacity="0.86"/>
<circle cx="394.1" cy="112.7" r="3.1" fill="#8fd8ff" fill-opacity="0.47"/>
<circle cx="131.6" cy="110.3" r="1.85" fill="#8fd8ff" fill-opacity="0.42"/>
<circle cx="333.8" cy="130.5" r="3.1" fill="#8fd8ff" fill-opacity="0.88"/>
<circle cx="299.1" cy="104.4" r="1.85" fill="#8fd8ff" fill-opacity="0.26"/>
<circle cx="99.4" cy="118.9" r="3.1" fill="#8fd8ff" fill-opacity="0.72"/>
<circle cx="414.7" cy="115.2" r="3.1" fill="#8fd8ff" fill-opacity="0.66"/>
<circle cx="191.6" cy="103.0" r="1.85" fill="#8fd8ff" fill-opacity="0.29"/>
<circle cx="217.4" cy="125.0" r="3.1" fill="#8fd8ff" fill-opacity="0.89"/>
<circle cx="359.0" cy="103.5" r="1.85" fill="#8fd8ff" fill-opacity="0.38"/>
<circle cx="111.6" cy="107.2" r="3.1" fill="#8fd8ff" fill-opacity="0.54"/>
<circle cx="380.0" cy="116.8" r="3.1" fill="#8fd8ff" fill-opacity="0.81"/>
<circle cx="257.4" cy="98.6" r="1.85" fill="#8fd8ff" fill-opacity="0.26"/>
<circle cx="131.1" cy="114.2" r="3.1" fill="#8fd8ff" fill-opacity="0.81"/>
<circle cx="398.4" cy="103.9" r="3.1" fill="#8fd8ff" fill-opacity="0.55"/>
<circle cx="158.3" cy="98.9" r="1.85" fill="#8fd8ff" fill-opacity="0.38"/>
<circle cx="287.6" cy="114.4" r="3.1" fill="#8fd8ff" fill-opacity="0.89"/>
<circle cx="320.1" cy="96.1" r="1.85" fill="#8fd8ff" fill-opacity="0.32"/>
<circle cx="108.8" cy="103.1" r="3.1" fill="#8fd8ff" fill-opacity="0.66"/>
<circle cx="397.8" cy="104.2" r="3.1" fill="#8fd8ff" fill-opacity="0.72"/>
<circle cx="218.6" cy="93.4" r="1.85" fill="#8fd8ff" fill-opacity="0.30"/>
<circle cx="184.4" cy="106.9" r="3.1" fill="#8fd8ff" fill-opacity="0.86"/>
<circle cx="369.9" cy="94.7" r="3.1" fill="#8fd8ff" fill-opacity="0.46"/>
<circle cx="135.1" cy="94.5" r="3.1" fill="#8fd8ff" fill-opacity="0.49"/>
<circle cx="341.6" cy="102.6" r="3.1" fill="#8fd8ff" fill-opacity="0.84"/>
<circle cx="280.7" cy="89.7" r="1.85" fill="#8fd8ff" fill-opacity="0.30"/>
<circle cx="127.3" cy="97.5" r="3.1" fill="#8fd8ff" fill-opacity="0.75"/>
<circle cx="392.5" cy="93.5" r="3.1" fill="#8fd8ff" fill-opacity="0.63"/>
<circle cx="185.4" cy="88.3" r="1.85" fill="#8fd8ff" fill-opacity="0.37"/>
<circle cx="246.8" cy="97.5" r="3.1" fill="#8fd8ff" fill-opacity="0.87"/>
<circle cx="335.4" cy="87.1" r="1.85" fill="#8fd8ff" fill-opacity="0.39"/>
<circle cx="126.3" cy="89.2" r="3.1" fill="#8fd8ff" fill-opacity="0.60"/>
<circle cx="370.4" cy="91.4" r="3.1" fill="#8fd8ff" fill-opacity="0.77"/>
<circle cx="243.6" cy="83.9" r="1.85" fill="#8fd8ff" fill-opacity="0.32"/>
<circle cx="166.4" cy="90.0" r="3.1" fill="#8fd8ff" fill-opacity="0.81"/>
<circle cx="371.8" cy="84.6" r="3.1" fill="#8fd8ff" fill-opacity="0.54"/>
<circle cx="161.1" cy="82.9" r="3.1" fill="#8fd8ff" fill-opacity="0.46"/>
<circle cx="301.2" cy="87.1" r="3.1" fill="#8fd8ff" fill-opacity="0.84"/>
<circle cx="299.1" cy="80.4" r="1.85" fill="#8fd8ff" fill-opacity="0.36"/>
<circle cx="135.8" cy="82.6" r="3.1" fill="#8fd8ff" fill-opacity="0.69"/>
<circle cx="375.2" cy="81.6" r="3.1" fill="#8fd8ff" fill-opacity="0.68"/>
<circle cx="211.6" cy="78.2" r="1.85" fill="#8fd8ff" fill-opacity="0.38"/>
<circle cx="217.5" cy="81.1" r="3.1" fill="#8fd8ff" fill-opacity="0.83"/>
<circle cx="342.6" cy="77.1" r="3.1" fill="#8fd8ff" fill-opacity="0.47"/>
<circle cx="149.7" cy="76.7" r="3.1" fill="#8fd8ff" fill-opacity="0.55"/>
<circle cx="335.6" cy="77.2" r="3.1" fill="#8fd8ff" fill-opacity="0.79"/>
<circle cx="264.6" cy="74.2" r="1.85" fill="#8fd8ff" fill-opacity="0.37"/>
<circle cx="163.8" cy="74.8" r="3.1" fill="#8fd8ff" fill-opacity="0.75"/>
<circle cx="362.3" cy="73.2" r="3.1" fill="#8fd8ff" fill-opacity="0.60"/>
<circle cx="188.3" cy="72.0" r="3.1" fill="#8fd8ff" fill-opacity="0.45"/>
<circle cx="266.2" cy="71.6" r="3.1" fill="#8fd8ff" fill-opacity="0.82"/>
<circle cx="310.2" cy="70.3" r="1.85" fill="#8fd8ff" fill-opacity="0.43"/>
<circle cx="154.7" cy="69.4" r="3.1" fill="#8fd8ff" fill-opacity="0.64"/>
<circle cx="347.1" cy="68.3" r="3.1" fill="#8fd8ff" fill-opacity="0.72"/>
<circle cx="235.3" cy="67.9" r="1.85" fill="#8fd8ff" fill-opacity="0.41"/>
<circle cx="204.0" cy="65.9" r="3.1" fill="#8fd8ff" fill-opacity="0.78"/>
<circle cx="338.3" cy="65.8" r="3.1" fill="#8fd8ff" fill-opacity="0.54"/>
<circle cx="177.7" cy="65.0" r="3.1" fill="#8fd8ff" fill-opacity="0.53"/>
<circle cx="299.3" cy="62.6" r="3.1" fill="#8fd8ff" fill-opacity="0.78"/>
<circle cx="279.0" cy="63.7" r="1.85" fill="#8fd8ff" fill-opacity="0.43"/>
<circle cx="176.7" cy="61.1" r="3.1" fill="#8fd8ff" fill-opacity="0.70"/>
<circle cx="338.8" cy="60.5" r="3.1" fill="#8fd8ff" fill-opacity="0.65"/>
<circle cx="215.5" cy="61.0" r="3.1" fill="#8fd8ff" fill-opacity="0.47"/>
<circle cx="243.7" cy="57.1" r="3.1" fill="#8fd8ff" fill-opacity="0.77"/>
<circle cx="309.1" cy="58.9" r="3.1" fill="#8fd8ff" fill-opacity="0.51"/>
<circle cx="184.0" cy="57.1" r="3.1" fill="#8fd8ff" fill-opacity="0.60"/>
<circle cx="310.2" cy="54.6" r="3.1" fill="#8fd8ff" fill-opacity="0.72"/>
<circle cx="253.7" cy="56.7" r="3.1" fill="#8fd8ff" fill-opacity="0.47"/>
<circle cx="210.3" cy="52.5" r="3.1" fill="#8fd8ff" fill-opacity="0.72"/>
<circle cx="316.0" cy="53.4" r="3.1" fill="#8fd8ff" fill-opacity="0.60"/>
<circle cx="211.3" cy="53.2" r="3.1" fill="#8fd8ff" fill-opacity="0.55"/>
<circle cx="268.9" cy="49.2" r="3.1" fill="#8fd8ff" fill-opacity="0.73"/>
<circle cx="279.7" cy="51.7" r="3.1" fill="#8fd8ff" fill-opacity="0.53"/>
<circle cx="210.0" cy="48.7" r="3.1" fill="#8fd8ff" fill-opacity="0.65"/>
<circle cx="295.8" cy="47.5" r="3.1" fill="#8fd8ff" fill-opacity="0.66"/>
<circle cx="242.6" cy="48.7" r="3.1" fill="#8fd8ff" fill-opacity="0.55"/>
<circle cx="244.4" cy="45.0" r="3.1" fill="#8fd8ff" fill-opacity="0.68"/>
<circle cx="277.5" cy="45.9" r="3.1" fill="#8fd8ff" fill-opacity="0.60"/>
<circle cx="242.3" cy="44.6" r="3.1" fill="#8fd8ff" fill-opacity="0.61"/>
</g></svg>