<svg xmlns="http://www.w3.org/2000/svg" viewBox="0 0 512 512">
<rect width="512" height="512" fill="#000"/>
<g transform="translate(256 256) scale(0.76) translate(-256 -256)">

<!-- FIREPLACE — the network node: a pure fibonacci dot sphere.
     golden angle 2.39996323, N=500, perspective F=2.6, tilt .35. -->
<defs>
  <radialGradient id="glow" cx="50%" cy="50%" r="50%">
    <stop offset="0%" stop-color="#3c78a0" stop-opacity=".16"/>
    <stop offset="70%" stop-color="#3c78a0" stop-opacity=".05"/>
    <stop offset="100%" stop-color="#3c78a0" stop-opacity="0"/>
  </radialGradient>
</defs>

<circle cx="256" cy="256" r="245.76" fill="url(#glow)"/>
<circle cx="263.3" cy="434.3" r="1.9" fill="#8fd8ff" fill-opacity="0.30"/>
<circle cx="257.4" cy="415.3" r="1.9" fill="#8fd8ff" fill-opacity="0.23"/>
<circle cx="236.6" cy="438.9" r="1.9" fill="#8fd8ff" fill-opacity="0.33"/>
<circle cx="286.7" cy="426.2" r="1.9" fill="#8fd8ff" fill-opacity="0.28"/>
<circle cx="231.0" cy="411.7" r="1.9" fill="#8fd8ff" fill-opacity="0.22"/>
<circle cx="260.3" cy="451.3" r="1.9" fill="#8fd8ff" fill-opacity="0.38"/>
<circle cx="279.5" cy="404.5" r="1.9" fill="#8fd8ff" fill-opacity="0.20"/>
<circle cx="211.3" cy="429.5" r="1.9" fill="#8fd8ff" fill-opacity="0.31"/>
<circle cx="298.5" cy="439.9" r="1.9" fill="#8fd8ff" fill-opacity="0.35"/>
<circle cx="243.2" cy="394.5" r="1.9" fill="#8fd8ff" fill-opacity="0.16"/>
<circle cx="230.3" cy="454.8" r="1.9" fill="#8fd8ff" fill-opacity="0.41"/>
<circle cx="306.0" cy="409.5" r="1.9" fill="#8fd8ff" fill-opacity="0.24"/>
<circle cx="204.2" cy="408.1" r="1.9" fill="#8fd8ff" fill-opacity="0.23"/>
<circle cx="285.0" cy="457.7" r="1.9" fill="#8fd8ff" fill-opacity="0.42"/>
<circle cx="271.9" cy="385.9" r="1.9" fill="#8fd8ff" fill-opacity="0.14"/>
<circle cx="197.7" cy="441.1" r="1.9" fill="#8fd8ff" fill-opacity="0.37"/>
<circle cx="322.4" cy="426.9" r="1.9" fill="#8fd8ff" fill-opacity="0.32"/>
<circle cx="219.4" cy="386.5" r="1.9" fill="#8fd8ff" fill-opacity="0.15"/>
<circle cx="247.1" cy="466.5" r="3.2" fill="#8fd8ff" fill-opacity="0.47"/>
<circle cx="306.0" cy="389.5" r="1.9" fill="#8fd8ff" fill-opacity="0.17"/>
<circle cx="182.7" cy="414.9" r="1.9" fill="#8fd8ff" fill-opacity="0.29"/>
<circle cx="315.7" cy="451.0" r="1.9" fill="#8fd8ff" fill-opacity="0.43"/>
<circle cx="251.7" cy="372.8" r="1.9" fill="#8fd8ff" fill-opacity="0.10"/>
<circle cx="200.8" cy="456.4" r="1.9" fill="#8fd8ff" fill-opacity="0.45"/>
<circle cx="333.7" cy="406.2" r="1.9" fill="#8fd8ff" fill-opacity="0.26"/>
<circle cx="193.0" cy="386.9" r="1.9" fill="#8fd8ff" fill-opacity="0.18"/>
<circle cx="278.9" cy="470.2" r="3.2" fill="#8fd8ff" fill-opacity="0.50"/>
<circle cx="292.3" cy="371.3" r="1.9" fill="#8fd8ff" fill-opacity="0.11"/>
<circle cx="170.1" cy="428.8" r="1.9" fill="#8fd8ff" fill-opacity="0.37"/>
<circle cx="341.6" cy="433.5" r="1.9" fill="#8fd8ff" fill-opacity="0.39"/>
<circle cx="224.6" cy="366.1" r="1.9" fill="#8fd8ff" fill-opacity="0.09"/>
<circle cx="221.6" cy="470.5" r="3.2" fill="#8fd8ff" fill-opacity="0.52"/>
<circle cx="331.0" cy="383.6" r="1.9" fill="#8fd8ff" fill-opacity="0.19"/>
<circle cx="168.7" cy="394.8" r="1.9" fill="#8fd8ff" fill-opacity="0.25"/>
<circle cx="316.9" cy="462.5" r="3.2" fill="#8fd8ff" fill-opacity="0.50"/>
<circle cx="268.6" cy="357.4" r="1.9" fill="#8fd8ff" fill-opacity="0.06"/>
<circle cx="171.1" cy="447.0" r="3.2" fill="#8fd8ff" fill-opacity="0.46"/>
<circle cx="355.4" cy="409.3" r="1.9" fill="#8fd8ff" fill-opacity="0.32"/>
<circle cx="194.7" cy="366.2" r="1.9" fill="#8fd8ff" fill-opacity="0.12"/>
<circle cx="258.6" cy="477.6" r="3.2" fill="#8fd8ff" fill-opacity="0.56"/>
<circle cx="315.5" cy="362.8" r="1.9" fill="#8fd8ff" fill-opacity="0.11"/>
<circle cx="151.2" cy="409.7" r="1.9" fill="#8fd8ff" fill-opacity="0.34"/>
<circle cx="350.5" cy="443.5" r="3.2" fill="#8fd8ff" fill-opacity="0.46"/>
<circle cx="190.1" cy="465.5" r="3.2" fill="#8fd8ff" fill-opacity="0.54"/>
<circle cx="354.5" cy="383.2" r="1.9" fill="#8fd8ff" fill-opacity="0.23"/>
<circle cx="165.7" cy="373.3" r="1.9" fill="#8fd8ff" fill-opacity="0.19"/>
<circle cx="304.7" cy="472.9" r="3.2" fill="#8fd8ff" fill-opacity="0.57"/>
<circle cx="290.1" cy="346.5" r="1.9" fill="#8fd8ff" fill-opacity="0.05"/>
<circle cx="145.7" cy="429.8" r="1.9" fill="#8fd8ff" fill-opacity="0.44"/>
<circle cx="371.3" cy="416.7" r="1.9" fill="#8fd8ff" fill-opacity="0.39"/>
<circle cx="205.1" cy="347.4" r="1.9" fill="#8fd8ff" fill-opacity="0.07"/>
<circle cx="228.2" cy="478.4" r="3.2" fill="#8fd8ff" fill-opacity="0.60"/>
<circle cx="339.8" cy="359.1" r="1.9" fill="#8fd8ff" fill-opacity="0.14"/>
<circle cx="141.7" cy="387.3" r="1.9" fill="#8fd8ff" fill-opacity="0.28"/>
<circle cx="348.6" cy="455.1" r="3.2" fill="#8fd8ff" fill-opacity="0.54"/>
<circle cx="158.0" cy="452.2" r="3.2" fill="#8fd8ff" fill-opacity="0.53"/>
<circle cx="375.5" cy="387.2" r="1.9" fill="#8fd8ff" fill-opacity="0.30"/>
<circle cx="171.6" cy="352.3" r="1.9" fill="#8fd8ff" fill-opacity="0.13"/>
<circle cx="280.2" cy="479.8" r="3.2" fill="#8fd8ff" fill-opacity="0.62"/>
<circle cx="314.3" cy="339.5" r="1.9" fill="#8fd8ff" fill-opacity="0.06"/>
<circle cx="127.8" cy="407.6" r="1.9" fill="#8fd8ff" fill-opacity="0.40"/>
<circle cx="379.7" cy="427.3" r="3.2" fill="#8fd8ff" fill-opacity="0.47"/>
<circle cx="191.8" cy="471.5" r="3.2" fill="#8fd8ff" fill-opacity="0.61"/>
<circle cx="363.9" cy="359.4" r="1.9" fill="#8fd8ff" fill-opacity="0.19"/>
<circle cx="141.3" cy="364.2" r="1.9" fill="#8fd8ff" fill-opacity="0.22"/>
<circle cx="334.9" cy="466.4" r="3.2" fill="#8fd8ff" fill-opacity="0.61"/>
<circle cx="130.2" cy="432.1" r="3.2" fill="#8fd8ff" fill-opacity="0.51"/>
<circle cx="392.3" cy="395.0" r="1.9" fill="#8fd8ff" fill-opacity="0.38"/>
<circle cx="184.6" cy="333.2" r="1.9" fill="#8fd8ff" fill-opacity="0.07"/>
<circle cx="245.3" cy="480.9" r="3.2" fill="#8fd8ff" fill-opacity="0.66"/>
<circle cx="339.8" cy="336.1" r="1.9" fill="#8fd8ff" fill-opacity="0.10"/>
<circle cx="118.8" cy="382.9" r="1.9" fill="#8fd8ff" fill-opacity="0.34"/>
<circle cx="378.8" cy="439.8" r="3.2" fill="#8fd8ff" fill-opacity="0.55"/>
<circle cx="154.7" cy="456.6" r="3.2" fill="#8fd8ff" fill-opacity="0.61"/>
<circle cx="386.4" cy="363.5" r="1.9" fill="#8fd8ff" fill-opacity="0.26"/>
<circle cx="149.0" cy="342.1" r="1.9" fill="#8fd8ff" fill-opacity="0.16"/>
<circle cx="308.6" cy="474.7" r="3.2" fill="#8fd8ff" fill-opacity="0.67"/>
<circle cx="110.1" cy="407.4" r="3.2" fill="#8fd8ff" fill-opacity="0.46"/>
<circle cx="403.0" cy="405.8" r="3.2" fill="#8fd8ff" fill-opacity="0.46"/>
<circle cx="203.7" cy="474.2" r="3.2" fill="#8fd8ff" fill-opacity="0.68"/>
<circle cx="365.5" cy="336.2" r="1.9" fill="#8fd8ff" fill-opacity="0.15"/>
<circle cx="118.9" cy="357.9" r="1.9" fill="#8fd8ff" fill-opacity="0.27"/>
<circle cx="366.3" cy="452.4" r="3.2" fill="#8fd8ff" fill-opacity="0.63"/>
<circle cx="122.1" cy="434.8" r="3.2" fill="#8fd8ff" fill-opacity="0.58"/>
<circle cx="405.7" cy="370.9" r="1.9" fill="#8fd8ff" fill-opacity="0.35"/>
<circle cx="163.5" cy="321.9" r="1.9" fill="#8fd8ff" fill-opacity="0.09"/>
<circle cx="270.8" cy="477.6" r="3.2" fill="#8fd8ff" fill-opacity="0.71"/>
<circle cx="333.8" cy="314.9" r="1.9" fill="#8fd8ff" fill-opacity="0.05"/>
<circle cx="99.5" cy="380.5" r="1.9" fill="#8fd8ff" fill-opacity="0.40"/>
<circle cx="405.2" cy="418.7" r="3.2" fill="#8fd8ff" fill-opacity="0.55"/>
<circle cx="160.6" cy="459.3" r="3.2" fill="#8fd8ff" fill-opacity="0.68"/>
<circle cx="390.1" cy="339.5" r="1.9" fill="#8fd8ff" fill-opacity="0.22"/>
<circle cx="127.2" cy="334.3" r="1.9" fill="#8fd8ff" fill-opacity="0.20"/>
<circle cx="340.9" cy="462.7" r="3.2" fill="#8fd8ff" fill-opacity="0.69"/>
<circle cx="97.9" cy="408.2" r="3.2" fill="#8fd8ff" fill-opacity="0.54"/>
<circle cx="419.8" cy="381.2" r="1.9" fill="#8fd8ff" fill-opacity="0.44"/>
<circle cx="224.7" cy="472.8" r="3.2" fill="#8fd8ff" fill-opacity="0.73"/>
<circle cx="361.1" cy="314.1" r="1.9" fill="#8fd8ff" fill-opacity="0.11"/>
<circle cx="98.5" cy="353.6" r="1.9" fill="#8fd8ff" fill-opacity="0.33"/>
<circle cx="396.3" cy="432.3" r="3.2" fill="#8fd8ff" fill-opacity="0.63"/>
<circle cx="121.8" cy="436.9" r="3.2" fill="#8fd8ff" fill-opacity="0.65"/>
<circle cx="412.2" cy="345.9" r="1.9" fill="#8fd8ff" fill-opacity="0.31"/>
<circle cx="142.3" cy="312.8" r="1.9" fill="#8fd8ff" fill-opacity="0.13"/>
<circle cx="302.5" cy="468.2" r="3.2" fill="#8fd8ff" fill-opacity="0.75"/>
<circle cx="83.9" cy="379.4" r="3.2" fill="#8fd8ff" fill-opacity="0.47"/>
<circle cx="426.3" cy="393.8" r="3.2" fill="#8fd8ff" fill-opacity="0.53"/>
<circle cx="175.5" cy="459.2" r="3.2" fill="#8fd8ff" fill-opacity="0.74"/>
<circle cx="387.8" cy="316.3" r="1.9" fill="#8fd8ff" fill-opacity="0.18"/>
<circle cx="106.3" cy="328.2" r="1.9" fill="#8fd8ff" fill-opacity="0.25"/>
<circle cx="374.2" cy="444.4" r="3.2" fill="#8fd8ff" fill-opacity="0.71"/>
<circle cx="91.6" cy="409.2" r="3.2" fill="#8fd8ff" fill-opacity="0.61"/>
<circle cx="430.0" cy="355.1" r="1.9" fill="#8fd8ff" fill-opacity="0.41"/>
<circle cx="162.7" cy="294.1" r="1.9" fill="#8fd8ff" fill-opacity="0.06"/>
<circle cx="253.6" cy="466.2" r="3.2" fill="#8fd8ff" fill-opacity="0.78"/>
<circle cx="352.1" cy="293.5" r="1.9" fill="#8fd8ff" fill-opacity="0.07"/>
<circle cx="80.6" cy="350.6" r="1.9" fill="#8fd8ff" fill-opacity="0.40"/>
<circle cx="422.5" cy="407.6" r="3.2" fill="#8fd8ff" fill-opacity="0.62"/>
<circle cx="129.6" cy="437.4" r="3.2" fill="#8fd8ff" fill-opacity="0.72"/>
<circle cx="412.5" cy="321.3" r="1.9" fill="#8fd8ff" fill-opacity="0.27"/>
<circle cx="121.2" cy="305.3" r="1.9" fill="#8fd8ff" fill-opacity="0.18"/>
<circle cx="337.7" cy="452.5" r="3.2" fill="#8fd8ff" fill-opacity="0.77"/>
<circle cx="72.8" cy="378.9" r="3.2" fill="#8fd8ff" fill-opacity="0.55"/>
<circle cx="441.2" cy="366.7" r="3.2" fill="#8fd8ff" fill-opacity="0.50"/>
<circle cx="199.2" cy="455.2" r="3.2" fill="#8fd8ff" fill-opacity="0.79"/>
<circle cx="380.6" cy="294.3" r="1.9" fill="#8fd8ff" fill-opacity="0.14"/>
<circle cx="86.8" cy="323.5" r="1.9" fill="#8fd8ff" fill-opacity="0.32"/>
<circle cx="405.5" cy="420.8" r="3.2" fill="#8fd8ff" fill-opacity="0.71"/>
<circle cx="92.3" cy="409.5" r="3.2" fill="#8fd8ff" fill-opacity="0.68"/>
<circle cx="433.9" cy="328.9" r="1.9" fill="#8fd8ff" fill-opacity="0.36"/>
<circle cx="141.8" cy="285.2" r="1.9" fill="#8fd8ff" fill-opacity="0.10"/>
<circle cx="288.4" cy="453.8" r="3.2" fill="#8fd8ff" fill-opacity="0.81"/>
<circle cx="65.7" cy="348.4" r="3.2" fill="#8fd8ff" fill-opacity="0.47"/>
<circle cx="443.1" cy="379.9" r="3.2" fill="#8fd8ff" fill-opacity="0.60"/>
<circle cx="146.0" cy="435.2" r="3.2" fill="#8fd8ff" fill-opacity="0.78"/>
<circle cx="407.7" cy="297.6" r="1.9" fill="#8fd8ff" fill-opacity="0.22"/>
<circle cx="100.9" cy="298.9" r="1.9" fill="#8fd8ff" fill-opacity="0.23"/>
<circle cx="373.6" cy="431.0" r="3.2" fill="#8fd8ff" fill-opacity="0.77"/>
<circle cx="67.0" cy="378.2" r="3.2" fill="#8fd8ff" fill-opacity="0.62"/>
<circle cx="449.6" cy="339.0" r="3.2" fill="#8fd8ff" fill-opacity="0.47"/>
<circle cx="230.6" cy="446.2" r="3.2" fill="#8fd8ff" fill-opacity="0.83"/>
<circle cx="369.5" cy="273.8" r="1.9" fill="#8fd8ff" fill-opacity="0.09"/>
<circle cx="69.3" cy="319.5" r="1.9" fill="#8fd8ff" fill-opacity="0.39"/>
<circle cx="432.6" cy="393.2" r="3.2" fill="#8fd8ff" fill-opacity="0.69"/>
<circle cx="100.6" cy="408.1" r="3.2" fill="#8fd8ff" fill-opacity="0.74"/>
<circle cx="432.1" cy="303.5" r="1.9" fill="#8fd8ff" fill-opacity="0.32"/>
<circle cx="121.1" cy="277.5" r="1.9" fill="#8fd8ff" fill-opacity="0.15"/>
<circle cx="326.7" cy="435.4" r="3.2" fill="#8fd8ff" fill-opacity="0.83"/>
<circle cx="54.7" cy="346.3" r="3.2" fill="#8fd8ff" fill-opacity="0.55"/>
<circle cx="457.3" cy="350.8" r="3.2" fill="#8fd8ff" fill-opacity="0.57"/>
<circle cx="171.0" cy="429.2" r="3.2" fill="#8fd8ff" fill-opacity="0.83"/>
<circle cx="398.5" cy="275.5" r="1.9" fill="#8fd8ff" fill-opacity="0.18"/>
<circle cx="81.7" cy="293.4" r="1.9" fill="#8fd8ff" fill-opacity="0.30"/>
<circle cx="407.0" cy="404.6" r="3.2" fill="#8fd8ff" fill-opacity="0.77"/>
<circle cx="67.6" cy="376.6" r="3.2" fill="#8fd8ff" fill-opacity="0.69"/>
<circle cx="451.9" cy="311.6" r="1.9" fill="#8fd8ff" fill-opacity="0.42"/>
<circle cx="145.9" cy="259.2" r="1.9" fill="#8fd8ff" fill-opacity="0.08"/>
<circle cx="268.0" cy="431.6" r="3.2" fill="#8fd8ff" fill-opacity="0.86"/>
<circle cx="355.5" cy="254.9" r="1.9" fill="#8fd8ff" fill-opacity="0.06"/>
<circle cx="54.5" cy="315.9" r="3.2" fill="#8fd8ff" fill-opacity="0.46"/>
<circle cx="453.7" cy="363.3" r="3.2" fill="#8fd8ff" fill-opacity="0.67"/>
<circle cx="117.4" cy="403.9" r="3.2" fill="#8fd8ff" fill-opacity="0.80"/>
<circle cx="425.4" cy="279.4" r="1.9" fill="#8fd8ff" fill-opacity="0.27"/>
<circle cx="101.0" cy="270.5" r="1.9" fill="#8fd8ff" fill-opacity="0.22"/>
<circle cx="365.2" cy="411.5" r="3.2" fill="#8fd8ff" fill-opacity="0.83"/>
<circle cx="48.7" cy="343.8" r="3.2" fill="#8fd8ff" fill-opacity="0.62"/>
<circle cx="464.8" cy="321.5" r="3.2" fill="#8fd8ff" fill-opacity="0.53"/>
<circle cx="203.9" cy="418.2" r="3.2" fill="#8fd8ff" fill-opacity="0.87"/>
<circle cx="385.9" cy="254.9" r="1.9" fill="#8fd8ff" fill-opacity="0.13"/>
<circle cx="64.4" cy="288.3" r="1.9" fill="#8fd8ff" fill-opacity="0.37"/>
<circle cx="435.7" cy="374.8" r="3.2" fill="#8fd8ff" fill-opacity="0.75"/>
<circle cx="75.6" cy="373.1" r="3.2" fill="#8fd8ff" fill-opacity="0.76"/>
<circle cx="448.6" cy="285.4" r="1.9" fill="#8fd8ff" fill-opacity="0.38"/>
<circle cx="125.3" cy="250.9" r="1.9" fill="#8fd8ff" fill-opacity="0.14"/>
<circle cx="308.8" cy="411.2" r="3.2" fill="#8fd8ff" fill-opacity="0.87"/>
<circle cx="43.4" cy="312.1" r="3.2" fill="#8fd8ff" fill-opacity="0.54"/>
<circle cx="467.9" cy="332.5" r="3.2" fill="#8fd8ff" fill-opacity="0.63"/>
<circle cx="142.7" cy="395.8" r="3.2" fill="#8fd8ff" fill-opacity="0.85"/>
<circle cx="414.7" cy="256.9" r="1.9" fill="#8fd8ff" fill-opacity="0.23"/>
<circle cx="82.0" cy="264.0" r="1.9" fill="#8fd8ff" fill-opacity="0.28"/>
<circle cx="401.0" cy="383.1" r="3.2" fill="#8fd8ff" fill-opacity="0.83"/>
<circle cx="48.8" cy="340.0" r="3.2" fill="#8fd8ff" fill-opacity="0.69"/>
<circle cx="466.2" cy="293.1" r="3.2" fill="#8fd8ff" fill-opacity="0.49"/>
<circle cx="153.2" cy="234.4" r="1.9" fill="#8fd8ff" fill-opacity="0.07"/>
<circle cx="243.0" cy="401.7" r="3.2" fill="#8fd8ff" fill-opacity="0.89"/>
<circle cx="370.6" cy="235.9" r="1.9" fill="#8fd8ff" fill-opacity="0.10"/>
<circle cx="49.7" cy="283.1" r="3.2" fill="#8fd8ff" fill-opacity="0.45"/>
<circle cx="457.8" cy="343.1" r="3.2" fill="#8fd8ff" fill-opacity="0.73"/>
<circle cx="91.9" cy="366.7" r="3.2" fill="#8fd8ff" fill-opacity="0.81"/>
<circle cx="440.7" cy="260.7" r="1.9" fill="#8fd8ff" fill-opacity="0.33"/>
<circle cx="105.4" cy="243.1" r="1.9" fill="#8fd8ff" fill-opacity="0.20"/>
<circle cx="349.8" cy="385.4" r="3.2" fill="#8fd8ff" fill-opacity="0.88"/>
<circle cx="37.1" cy="307.5" r="3.2" fill="#8fd8ff" fill-opacity="0.62"/>
<circle cx="475.2" cy="301.9" r="3.2" fill="#8fd8ff" fill-opacity="0.59"/>
<circle cx="176.1" cy="382.9" r="3.2" fill="#8fd8ff" fill-opacity="0.89"/>
<circle cx="400.9" cy="236.1" r="1.9" fill="#8fd8ff" fill-opacity="0.18"/>
<circle cx="65.0" cy="257.5" r="1.9" fill="#8fd8ff" fill-opacity="0.36"/>
<circle cx="431.6" cy="351.6" r="3.2" fill="#8fd8ff" fill-opacity="0.81"/>
<circle cx="56.1" cy="334.2" r="3.2" fill="#8fd8ff" fill-opacity="0.76"/>
<circle cx="461.9" cy="266.1" r="1.9" fill="#8fd8ff" fill-opacity="0.44"/>
<circle cx="132.8" cy="225.5" r="1.9" fill="#8fd8ff" fill-opacity="0.13"/>
<circle cx="285.6" cy="379.6" r="3.2" fill="#8fd8ff" fill-opacity="0.91"/>
<circle cx="353.2" cy="218.5" r="1.9" fill="#8fd8ff" fill-opacity="0.07"/>
<circle cx="38.6" cy="277.4" r="3.2" fill="#8fd8ff" fill-opacity="0.53"/>
<circle cx="472.6" cy="310.9" r="3.2" fill="#8fd8ff" fill-opacity="0.69"/>
<circle cx="116.8" cy="356.4" r="3.2" fill="#8fd8ff" fill-opacity="0.86"/>
<circle cx="428.8" cy="237.9" r="1.9" fill="#8fd8ff" fill-opacity="0.28"/>
<circle cx="86.9" cy="235.5" r="1.9" fill="#8fd8ff" fill-opacity="0.27"/>
<circle cx="387.8" cy="355.5" r="3.2" fill="#8fd8ff" fill-opacity="0.87"/>
<circle cx="36.6" cy="301.5" r="3.2" fill="#8fd8ff" fill-opacity="0.69"/>
<circle cx="476.0" cy="272.6" r="3.2" fill="#8fd8ff" fill-opacity="0.55"/>
<circle cx="163.0" cy="210.8" r="1.9" fill="#8fd8ff" fill-opacity="0.07"/>
<circle cx="215.8" cy="364.6" r="3.2" fill="#8fd8ff" fill-opacity="0.92"/>
<circle cx="384.5" cy="216.9" r="1.9" fill="#8fd8ff" fill-opacity="0.15"/>
<circle cx="50.5" cy="250.7" r="1.9" fill="#8fd8ff" fill-opacity="0.44"/>
<circle cx="455.0" cy="318.6" r="3.2" fill="#8fd8ff" fill-opacity="0.78"/>
<circle cx="71.5" cy="325.4" r="3.2" fill="#8fd8ff" fill-opacity="0.82"/>
<circle cx="452.9" cy="241.0" r="1.9" fill="#8fd8ff" fill-opacity="0.39"/>
<circle cx="113.4" cy="216.8" r="1.9" fill="#8fd8ff" fill-opacity="0.19"/>
<circle cx="328.4" cy="352.5" r="3.2" fill="#8fd8ff" fill-opacity="0.91"/>
<circle cx="32.1" cy="270.7" r="3.2" fill="#8fd8ff" fill-opacity="0.60"/>
<circle cx="480.0" cy="279.5" r="3.2" fill="#8fd8ff" fill-opacity="0.65"/>
<circle cx="149.7" cy="341.5" r="3.2" fill="#8fd8ff" fill-opacity="0.90"/>
<circle cx="413.9" cy="216.8" r="1.9" fill="#8fd8ff" fill-opacity="0.24"/>
<circle cx="70.2" cy="227.6" r="1.9" fill="#8fd8ff" fill-opacity="0.34"/>
<circle cx="420.2" cy="322.8" r="3.2" fill="#8fd8ff" fill-opacity="0.85"/>
<circle cx="43.3" cy="293.2" r="3.2" fill="#8fd8ff" fill-opacity="0.75"/>
<circle cx="471.0" cy="245.1" r="3.2" fill="#8fd8ff" fill-opacity="0.50"/>
<circle cx="143.0" cy="201.1" r="1.9" fill="#8fd8ff" fill-opacity="0.12"/>
<circle cx="259.1" cy="341.1" r="3.2" fill="#8fd8ff" fill-opacity="0.93"/>
<circle cx="366.3" cy="199.3" r="1.9" fill="#8fd8ff" fill-opacity="0.12"/>
<circle cx="39.6" cy="243.1" r="3.2" fill="#8fd8ff" fill-opacity="0.51"/>
<circle cx="470.6" cy="285.5" r="3.2" fill="#8fd8ff" fill-opacity="0.75"/>
<circle cx="95.4" cy="312.8" r="3.2" fill="#8fd8ff" fill-opacity="0.87"/>
<circle cx="440.0" cy="217.8" r="1.9" fill="#8fd8ff" fill-opacity="0.34"/>
<circle cx="95.4" cy="208.0" r="1.9" fill="#8fd8ff" fill-opacity="0.26"/>
<circle cx="368.1" cy="321.4" r="3.2" fill="#8fd8ff" fill-opacity="0.91"/>
<circle cx="31.4" cy="262.3" r="3.2" fill="#8fd8ff" fill-opacity="0.67"/>
<circle cx="480.6" cy="249.5" r="3.2" fill="#8fd8ff" fill-opacity="0.61"/>
<circle cx="174.6" cy="188.0" r="1.9" fill="#8fd8ff" fill-opacity="0.07"/>
<circle cx="189.0" cy="321.5" r="3.2" fill="#8fd8ff" fill-opacity="0.93"/>
<circle cx="396.6" cy="197.4" r="1.9" fill="#8fd8ff" fill-opacity="0.20"/>
<circle cx="56.4" cy="219.1" r="1.9" fill="#8fd8ff" fill-opacity="0.42"/>
<circle cx="444.9" cy="289.0" r="3.2" fill="#8fd8ff" fill-opacity="0.83"/>
<circle cx="57.8" cy="281.9" r="3.2" fill="#8fd8ff" fill-opacity="0.81"/>
<circle cx="461.2" cy="219.6" r="3.2" fill="#8fd8ff" fill-opacity="0.45"/>
<circle cx="124.2" cy="191.4" r="1.9" fill="#8fd8ff" fill-opacity="0.19"/>
<circle cx="302.8" cy="312.8" r="3.2" fill="#8fd8ff" fill-opacity="0.94"/>
<circle cx="346.8" cy="183.0" r="1.9" fill="#8fd8ff" fill-opacity="0.10"/>
<circle cx="33.5" cy="234.2" r="3.2" fill="#8fd8ff" fill-opacity="0.59"/>
<circle cx="478.3" cy="253.4" r="3.2" fill="#8fd8ff" fill-opacity="0.71"/>
<circle cx="127.3" cy="295.7" r="3.2" fill="#8fd8ff" fill-opacity="0.90"/>
<circle cx="424.2" cy="196.5" r="1.9" fill="#8fd8ff" fill-opacity="0.30"/>
<circle cx="79.5" cy="198.7" r="1.9" fill="#8fd8ff" fill-opacity="0.33"/>
<circle cx="401.7" cy="288.1" r="3.2" fill="#8fd8ff" fill-opacity="0.89"/>
<circle cx="37.7" cy="251.4" r="3.2" fill="#8fd8ff" fill-opacity="0.74"/>
<circle cx="475.0" cy="221.6" r="3.2" fill="#8fd8ff" fill-opacity="0.56"/>
<circle cx="155.2" cy="177.5" r="1.9" fill="#8fd8ff" fill-opacity="0.13"/>
<circle cx="232.1" cy="296.6" r="3.2" fill="#8fd8ff" fill-opacity="0.95"/>
<circle cx="377.6" cy="179.6" r="1.9" fill="#8fd8ff" fill-opacity="0.18"/>
<circle cx="46.3" cy="209.6" r="3.2" fill="#8fd8ff" fill-opacity="0.50"/>
<circle cx="461.2" cy="255.4" r="3.2" fill="#8fd8ff" fill-opacity="0.79"/>
<circle cx="80.7" cy="266.8" r="3.2" fill="#8fd8ff" fill-opacity="0.86"/>
<circle cx="447.5" cy="196.1" r="1.9" fill="#8fd8ff" fill-opacity="0.41"/>
<circle cx="107.0" cy="181.4" r="1.9" fill="#8fd8ff" fill-opacity="0.26"/>
<circle cx="343.2" cy="281.2" r="3.2" fill="#8fd8ff" fill-opacity="0.93"/>
<circle cx="326.4" cy="167.7" r="1.9" fill="#8fd8ff" fill-opacity="0.09"/>
<circle cx="33.2" cy="223.3" r="3.2" fill="#8fd8ff" fill-opacity="0.66"/>
<circle cx="478.7" cy="223.2" r="3.2" fill="#8fd8ff" fill-opacity="0.66"/>
<circle cx="187.5" cy="165.7" r="1.9" fill="#8fd8ff" fill-opacity="0.09"/>
<circle cx="165.6" cy="274.0" r="3.2" fill="#8fd8ff" fill-opacity="0.93"/>
<circle cx="406.1" cy="176.9" r="1.9" fill="#8fd8ff" fill-opacity="0.27"/>
<circle cx="66.7" cy="188.5" r="1.9" fill="#8fd8ff" fill-opacity="0.41"/>
<circle cx="427.3" cy="254.0" r="3.2" fill="#8fd8ff" fill-opacity="0.86"/>
<circle cx="273.4" cy="160.0" r="1.9" fill="#8fd8ff" fill-opacity="0.05"/>
<circle cx="51.9" cy="237.5" r="3.2" fill="#8fd8ff" fill-opacity="0.79"/>
<circle cx="464.5" cy="195.9" r="3.2" fill="#8fd8ff" fill-opacity="0.51"/>
<circle cx="137.2" cy="166.7" r="1.9" fill="#8fd8ff" fill-opacity="0.19"/>
<circle cx="275.4" cy="267.5" r="3.2" fill="#8fd8ff" fill-opacity="0.95"/>
<circle cx="357.5" cy="163.0" r="1.9" fill="#8fd8ff" fill-opacity="0.16"/>
<circle cx="41.1" cy="198.5" r="3.2" fill="#8fd8ff" fill-opacity="0.57"/>
<circle cx="469.1" cy="223.2" r="3.2" fill="#8fd8ff" fill-opacity="0.75"/>
<circle cx="220.4" cy="155.7" r="1.9" fill="#8fd8ff" fill-opacity="0.07"/>
<circle cx="111.4" cy="247.5" r="3.2" fill="#8fd8ff" fill-opacity="0.89"/>
<circle cx="430.7" cy="174.6" r="1.9" fill="#8fd8ff" fill-opacity="0.37"/>
<circle cx="92.4" cy="170.7" r="1.9" fill="#8fd8ff" fill-opacity="0.33"/>
<circle cx="377.3" cy="247.6" r="3.2" fill="#8fd8ff" fill-opacity="0.91"/>
<circle cx="305.7" cy="153.3" r="1.9" fill="#8fd8ff" fill-opacity="0.09"/>
<circle cx="39.9" cy="210.0" r="3.2" fill="#8fd8ff" fill-opacity="0.72"/>
<circle cx="472.5" cy="195.1" r="3.2" fill="#8fd8ff" fill-opacity="0.62"/>
<circle cx="169.0" cy="154.3" r="1.9" fill="#8fd8ff" fill-opacity="0.15"/>
<circle cx="207.4" cy="247.8" r="3.2" fill="#8fd8ff" fill-opacity="0.94"/>
<circle cx="386.3" cy="158.8" r="1.9" fill="#8fd8ff" fill-opacity="0.24"/>
<circle cx="58.1" cy="177.1" r="3.2" fill="#8fd8ff" fill-opacity="0.48"/>
<circle cx="443.9" cy="220.4" r="3.2" fill="#8fd8ff" fill-opacity="0.83"/>
<circle cx="253.1" cy="147.1" r="1.9" fill="#8fd8ff" fill-opacity="0.08"/>
<circle cx="74.2" cy="220.0" r="3.2" fill="#8fd8ff" fill-opacity="0.84"/>
<circle cx="449.8" cy="172.3" r="3.2" fill="#8fd8ff" fill-opacity="0.47"/>
<circle cx="121.4" cy="155.5" r="1.9" fill="#8fd8ff" fill-opacity="0.26"/>
<circle cx="315.3" cy="235.6" r="3.2" fill="#8fd8ff" fill-opacity="0.94"/>
<circle cx="336.7" cy="147.4" r="1.9" fill="#8fd8ff" fill-opacity="0.15"/>
<circle cx="42.0" cy="185.4" r="3.2" fill="#8fd8ff" fill-opacity="0.64"/>
<circle cx="468.9" cy="193.0" r="3.2" fill="#8fd8ff" fill-opacity="0.71"/>
<circle cx="201.3" cy="143.7" r="1.9" fill="#8fd8ff" fill-opacity="0.12"/>
<circle cx="148.3" cy="224.1" r="3.2" fill="#8fd8ff" fill-opacity="0.92"/>
<circle cx="411.6" cy="154.8" r="1.9" fill="#8fd8ff" fill-opacity="0.33"/>
<circle cx="81.4" cy="158.9" r="1.9" fill="#8fd8ff" fill-opacity="0.40"/>
<circle cx="402.8" cy="213.8" r="3.2" fill="#8fd8ff" fill-opacity="0.89"/>
<circle cx="285.1" cy="139.5" r="1.9" fill="#8fd8ff" fill-opacity="0.11"/>
<circle cx="54.5" cy="193.6" r="3.2" fill="#8fd8ff" fill-opacity="0.77"/>
<circle cx="461.0" cy="169.3" r="3.2" fill="#8fd8ff" fill-opacity="0.57"/>
<circle cx="152.3" cy="142.6" r="1.9" fill="#8fd8ff" fill-opacity="0.21"/>
<circle cx="249.4" cy="218.3" r="3.2" fill="#8fd8ff" fill-opacity="0.95"/>
<circle cx="365.5" cy="141.9" r="1.9" fill="#8fd8ff" fill-opacity="0.22"/>
<circle cx="54.8" cy="164.0" r="3.2" fill="#8fd8ff" fill-opacity="0.56"/>
<circle cx="451.3" cy="188.6" r="3.2" fill="#8fd8ff" fill-opacity="0.79"/>
<circle cx="233.6" cy="134.3" r="1.9" fill="#8fd8ff" fill-opacity="0.12"/>
<circle cx="104.1" cy="198.7" r="3.2" fill="#8fd8ff" fill-opacity="0.88"/>
<circle cx="431.8" cy="150.6" r="1.9" fill="#8fd8ff" fill-opacity="0.43"/>
<circle cx="108.7" cy="143.4" r="1.9" fill="#8fd8ff" fill-opacity="0.33"/>
<circle cx="348.5" cy="202.4" r="3.2" fill="#8fd8ff" fill-opacity="0.92"/>
<circle cx="315.7" cy="132.5" r="1.9" fill="#8fd8ff" fill-opacity="0.16"/>
<circle cx="50.3" cy="169.7" r="3.2" fill="#8fd8ff" fill-opacity="0.70"/>
<circle cx="461.8" cy="165.1" r="3.2" fill="#8fd8ff" fill-opacity="0.67"/>
<circle cx="183.9" cy="131.3" r="1.9" fill="#8fd8ff" fill-opacity="0.18"/>
<circle cx="188.4" cy="196.9" r="3.2" fill="#8fd8ff" fill-opacity="0.93"/>
<circle cx="390.9" cy="136.4" r="1.9" fill="#8fd8ff" fill-opacity="0.31"/>
<circle cx="75.0" cy="145.7" r="3.2" fill="#8fd8ff" fill-opacity="0.48"/>
<circle cx="418.5" cy="180.9" r="3.2" fill="#8fd8ff" fill-opacity="0.85"/>
<circle cx="265.1" cy="125.9" r="1.9" fill="#8fd8ff" fill-opacity="0.14"/>
<circle cx="77.2" cy="173.9" r="3.2" fill="#8fd8ff" fill-opacity="0.82"/>
<circle cx="445.0" cy="145.8" r="3.2" fill="#8fd8ff" fill-opacity="0.53"/>
<circle cx="138.3" cy="130.1" r="1.9" fill="#8fd8ff" fill-opacity="0.28"/>
<circle cx="287.4" cy="186.5" r="3.2" fill="#8fd8ff" fill-opacity="0.94"/>
<circle cx="344.1" cy="125.9" r="1.9" fill="#8fd8ff" fill-opacity="0.22"/>
<circle cx="58.2" cy="148.7" r="3.2" fill="#8fd8ff" fill-opacity="0.62"/>
<circle cx="450.0" cy="158.9" r="3.2" fill="#8fd8ff" fill-opacity="0.75"/>
<circle cx="215.5" cy="121.4" r="1.9" fill="#8fd8ff" fill-opacity="0.17"/>
<circle cx="139.7" cy="173.8" r="3.2" fill="#8fd8ff" fill-opacity="0.90"/>
<circle cx="411.4" cy="130.7" r="1.9" fill="#8fd8ff" fill-opacity="0.40"/>
<circle cx="100.2" cy="130.0" r="1.9" fill="#8fd8ff" fill-opacity="0.41"/>
<circle cx="372.4" cy="169.4" r="3.2" fill="#8fd8ff" fill-opacity="0.89"/>
<circle cx="295.1" cy="118.1" r="1.9" fill="#8fd8ff" fill-opacity="0.17"/>
<circle cx="66.7" cy="151.1" r="3.2" fill="#8fd8ff" fill-opacity="0.75"/>
<circle cx="448.7" cy="139.6" r="3.2" fill="#8fd8ff" fill-opacity="0.62"/>
<circle cx="169.0" cy="118.4" r="1.9" fill="#8fd8ff" fill-opacity="0.24"/>
<circle cx="228.0" cy="167.2" r="3.2" fill="#8fd8ff" fill-opacity="0.93"/>
<circle cx="369.0" cy="119.2" r="1.9" fill="#8fd8ff" fill-opacity="0.30"/>
<circle cx="74.9" cy="130.6" r="3.2" fill="#8fd8ff" fill-opacity="0.54"/>
<circle cx="424.3" cy="149.9" r="3.2" fill="#8fd8ff" fill-opacity="0.81"/>
<circle cx="246.3" cy="112.3" r="1.9" fill="#8fd8ff" fill-opacity="0.18"/>
<circle cx="107.3" cy="150.9" r="3.2" fill="#8fd8ff" fill-opacity="0.85"/>
<circle cx="425.3" cy="124.1" r="3.2" fill="#8fd8ff" fill-opacity="0.50"/>
<circle cx="128.3" cy="116.5" r="1.9" fill="#8fd8ff" fill-opacity="0.35"/>
<circle cx="318.1" cy="154.3" r="3.2" fill="#8fd8ff" fill-opacity="0.91"/>
<circle cx="322.6" cy="110.4" r="1.9" fill="#8fd8ff" fill-opacity="0.23"/>
<circle cx="69.5" cy="130.9" r="3.2" fill="#8fd8ff" fill-opacity="0.68"/>
<circle cx="440.8" cy="131.6" r="3.2" fill="#8fd8ff" fill-opacity="0.70"/>
<circle cx="199.8" cy="108.0" r="1.9" fill="#8fd8ff" fill-opacity="0.23"/>
<circle cx="178.0" cy="146.2" r="3.2" fill="#8fd8ff" fill-opacity="0.90"/>
<circle cx="389.1" cy="112.0" r="1.9" fill="#8fd8ff" fill-opacity="0.38"/>
<circle cx="97.6" cy="115.0" r="3.2" fill="#8fd8ff" fill-opacity="0.48"/>
<circle cx="385.7" cy="137.8" r="3.2" fill="#8fd8ff" fill-opacity="0.86"/>
<circle cx="275.4" cy="103.7" r="1.9" fill="#8fd8ff" fill-opacity="0.21"/>
<circle cx="91.4" cy="129.6" r="3.2" fill="#8fd8ff" fill-opacity="0.79"/>
<circle cx="430.3" cy="116.2" r="3.2" fill="#8fd8ff" fill-opacity="0.58"/>
<circle cx="157.9" cy="104.5" r="1.9" fill="#8fd8ff" fill-opacity="0.31"/>
<circle cx="263.0" cy="136.3" r="3.2" fill="#8fd8ff" fill-opacity="0.91"/>
<circle cx="346.6" cy="102.6" r="1.9" fill="#8fd8ff" fill-opacity="0.30"/>
<circle cx="82.6" cy="113.3" r="3.2" fill="#8fd8ff" fill-opacity="0.61"/>
<circle cx="420.2" cy="121.2" r="3.2" fill="#8fd8ff" fill-opacity="0.77"/>
<circle cx="229.6" cy="98.3" r="1.9" fill="#8fd8ff" fill-opacity="0.23"/>
<circle cx="142.7" cy="125.2" r="3.2" fill="#8fd8ff" fill-opacity="0.86"/>
<circle cx="402.5" cy="103.9" r="3.2" fill="#8fd8ff" fill-opacity="0.47"/>
<circle cx="124.0" cy="101.4" r="1.9" fill="#8fd8ff" fill-opacity="0.42"/>
<circle cx="338.6" cy="122.8" r="3.2" fill="#8fd8ff" fill-opacity="0.88"/>
<circle cx="301.8" cy="95.1" r="1.9" fill="#8fd8ff" fill-opacity="0.26"/>
<circle cx="89.8" cy="110.5" r="3.2" fill="#8fd8ff" fill-opacity="0.72"/>
<circle cx="424.4" cy="106.6" r="3.2" fill="#8fd8ff" fill-opacity="0.66"/>
<circle cx="187.6" cy="93.7" r="1.9" fill="#8fd8ff" fill-opacity="0.29"/>
<circle cx="215.0" cy="117.0" r="3.2" fill="#8fd8ff" fill-opacity="0.89"/>
<circle cx="365.3" cy="94.2" r="1.9" fill="#8fd8ff" fill-opacity="0.38"/>
<circle cx="102.8" cy="98.0" r="3.2" fill="#8fd8ff" fill-opacity="0.54"/>
<circle cx="387.6" cy="108.3" r="3.2" fill="#8fd8ff" fill-opacity="0.81"/>
<circle cx="257.5" cy="89.0" r="1.9" fill="#8fd8ff" fill-opacity="0.26"/>
<circle cx="123.5" cy="105.5" r="3.2" fill="#8fd8ff" fill-opacity="0.81"/>
<circle cx="407.1" cy="94.6" r="3.2" fill="#8fd8ff" fill-opacity="0.55"/>
<circle cx="152.3" cy="89.3" r="1.9" fill="#8fd8ff" fill-opacity="0.38"/>
<circle cx="289.5" cy="105.7" r="3.2" fill="#8fd8ff" fill-opacity="0.89"/>
<circle cx="324.0" cy="86.3" r="1.9" fill="#8fd8ff" fill-opacity="0.32"/>
<circle cx="99.8" cy="93.7" r="3.2" fill="#8fd8ff" fill-opacity="0.66"/>
<circle cx="406.5" cy="94.9" r="3.2" fill="#8fd8ff" fill-opacity="0.72"/>
<circle cx="216.4" cy="83.5" r="1.9" fill="#8fd8ff" fill-opacity="0.30"/>
<circle cx="180.0" cy="97.8" r="3.2" fill="#8fd8ff" fill-opacity="0.86"/>
<circle cx="376.9" cy="84.8" r="3.2" fill="#8fd8ff" fill-opacity="0.46"/>
<circle cx="127.7" cy="84.6" r="3.2" fill="#8fd8ff" fill-opacity="0.49"/>
<circle cx="346.8" cy="93.2" r="3.2" fill="#8fd8ff" fill-opacity="0.84"/>
<circle cx="282.2" cy="79.6" r="1.9" fill="#8fd8ff" fill-opacity="0.30"/>
<circle cx="119.5" cy="87.8" r="3.2" fill="#8fd8ff" fill-opacity="0.75"/>
<circle cx="400.8" cy="83.6" r="3.2" fill="#8fd8ff" fill-opacity="0.63"/>
<circle cx="181.1" cy="78.1" r="1.9" fill="#8fd8ff" fill-opacity="0.37"/>
<circle cx="246.2" cy="87.8" r="3.2" fill="#8fd8ff" fill-opacity="0.87"/>
<circle cx="340.3" cy="76.7" r="1.9" fill="#8fd8ff" fill-opacity="0.39"/>
<circle cx="118.4" cy="79.0" r="3.2" fill="#8fd8ff" fill-opacity="0.60"/>
<circle cx="377.4" cy="81.3" r="3.2" fill="#8fd8ff" fill-opacity="0.77"/>
<circle cx="242.8" cy="73.4" r="1.9" fill="#8fd8ff" fill-opacity="0.32"/>
<circle cx="160.9" cy="79.9" r="3.2" fill="#8fd8ff" fill-opacity="0.81"/>
<circle cx="378.9" cy="74.1" r="3.2" fill="#8fd8ff" fill-opacity="0.54"/>
<circle cx="155.3" cy="72.3" r="3.2" fill="#8fd8ff" fill-opacity="0.46"/>
<circle cx="304.0" cy="76.8" r="3.2" fill="#8fd8ff" fill-opacity="0.84"/>
<circle cx="301.8" cy="69.7" r="1.9" fill="#8fd8ff" fill-opacity="0.36"/>
<circle cx="128.5" cy="72.0" r="3.2" fill="#8fd8ff" fill-opacity="0.69"/>
<circle cx="382.5" cy="70.9" r="3.2" fill="#8fd8ff" fill-opacity="0.68"/>
<circle cx="208.9" cy="67.3" r="1.9" fill="#8fd8ff" fill-opacity="0.38"/>
<circle cx="215.1" cy="70.4" r="3.2" fill="#8fd8ff" fill-opacity="0.83"/>
<circle cx="347.9" cy="66.1" r="3.2" fill="#8fd8ff" fill-opacity="0.47"/>
<circle cx="143.2" cy="65.7" r="3.2" fill="#8fd8ff" fill-opacity="0.55"/>
<circle cx="340.5" cy="66.2" r="3.2" fill="#8fd8ff" fill-opacity="0.79"/>
<circle cx="265.2" cy="63.1" r="1.9" fill="#8fd8ff" fill-opacity="0.37"/>
<circle cx="158.2" cy="63.7" r="3.2" fill="#8fd8ff" fill-opacity="0.75"/>
<circle cx="368.8" cy="62.0" r="3.2" fill="#8fd8ff" fill-opacity="0.60"/>
<circle cx="184.2" cy="60.7" r="3.2" fill="#8fd8ff" fill-opacity="0.45"/>
<circle cx="266.8" cy="60.3" r="3.2" fill="#8fd8ff" fill-opacity="0.82"/>
<circle cx="313.5" cy="58.9" r="1.9" fill="#8fd8ff" fill-opacity="0.43"/>
<circle cx="148.5" cy="58.0" r="3.2" fill="#8fd8ff" fill-opacity="0.64"/>
<circle cx="352.6" cy="56.8" r="3.2" fill="#8fd8ff" fill-opacity="0.72"/>
<circle cx="234.0" cy="56.3" r="1.9" fill="#8fd8ff" fill-opacity="0.41"/>
<circle cx="200.8" cy="54.3" r="3.2" fill="#8fd8ff" fill-opacity="0.78"/>
<circle cx="343.3" cy="54.2" r="3.2" fill="#8fd8ff" fill-opacity="0.54"/>
<circle cx="173.0" cy="53.3" r="3.2" fill="#8fd8ff" fill-opacity="0.53"/>
<circle cx="302.0" cy="50.8" r="3.2" fill="#8fd8ff" fill-opacity="0.78"/>
<circle cx="280.4" cy="51.9" r="1.9" fill="#8fd8ff" fill-opacity="0.43"/>
<circle cx="171.8" cy="49.2" r="3.2" fill="#8fd8ff" fill-opacity="0.70"/>
<circle cx="343.9" cy="48.5" r="3.2" fill="#8fd8ff" fill-opacity="0.65"/>
<circle cx="213.0" cy="49.0" r="3.2" fill="#8fd8ff" fill-opacity="0.47"/>
<circle cx="243.0" cy="44.9" r="3.2" fill="#8fd8ff" fill-opacity="0.77"/>
<circle cx="312.3" cy="46.9" r="3.2" fill="#8fd8ff" fill-opacity="0.51"/>
<circle cx="179.6" cy="44.9" r="3.2" fill="#8fd8ff" fill-opacity="0.60"/>
<circle cx="313.5" cy="42.3" r="3.2" fill="#8fd8ff" fill-opacity="0.72"/>
<circle cx="253.5" cy="44.5" r="3.2" fill="#8fd8ff" fill-opacity="0.47"/>
<circle cx="207.5" cy="40.1" r="3.2" fill="#8fd8ff" fill-opacity="0.72"/>
<circle cx="319.6" cy="41.0" r="3.2" fill="#8fd8ff" fill-opacity="0.60"/>
<circle cx="208.6" cy="40.8" r="3.2" fill="#8fd8ff" fill-opacity="0.55"/>
<circle cx="269.6" cy="36.5" r="3.2" fill="#8fd8ff" fill-opacity="0.73"/>
<circle cx="281.2" cy="39.2" r="3.2" fill="#8fd8ff" fill-opacity="0.53"/>
<circle cx="207.2" cy="36.0" r="3.2" fill="#8fd8ff" fill-opacity="0.65"/>
<circle cx="298.2" cy="34.8" r="3.2" fill="#8fd8ff" fill-opacity="0.66"/>
<circle cx="241.8" cy="36.0" r="3.2" fill="#8fd8ff" fill-opacity="0.55"/>
<circle cx="243.7" cy="32.1" r="3.2" fill="#8fd8ff" fill-opacity="0.68"/>
<circle cx="278.8" cy="33.0" r="3.2" fill="#8fd8ff" fill-opacity="0.60"/>
<circle cx="241.5" cy="31.6" r="3.2" fill="#8fd8ff" fill-opacity="0.61"/>

</g>
</svg>