<svg xmlns="http://www.w3.org/2000/svg" viewBox="0 0 512 512">
<rect width="512" height="512" fill="#000"/>
<g transform="translate(256 256) scale(0.76) translate(-256 -256)">

<!-- FIREPLACE — the relay node. Generated: fibonacci shell (golden angle
     2.39996323, N=500, perspective F=2.6, tilt .35, iris fully open) around
     the exposed black-hole core. Same math as the landing page's shell.ts. -->
<defs>
  <radialGradient id="halo" cx="50%" cy="50%" r="50%">
    <stop offset="42%" stop-color="#ffb266" stop-opacity="0"/>
    <stop offset="62%" stop-color="#ffb266" stop-opacity=".38"/>
    <stop offset="82%" stop-color="#ffb266" stop-opacity=".08"/>
    <stop offset="100%" stop-color="#ffb266" stop-opacity="0"/>
  </radialGradient>
  <radialGradient id="glow" cx="50%" cy="50%" r="50%">
    <stop offset="0%" stop-color="#3c78a0" stop-opacity=".10"/>
    <stop offset="100%" stop-color="#3c78a0" stop-opacity="0"/>
  </radialGradient>
</defs>

<circle cx="256" cy="256" r="250" fill="url(#glow)"/>
<circle cx="256" cy="256" r="244.9" fill="url(#halo)"/>
<circle cx="256" cy="256" r="158" fill="#02050a"/>
<circle cx="256" cy="256" r="160" fill="none" stroke="#f4c98a" stroke-width="3" opacity=".85"/>
<circle cx="256" cy="256" r="160" fill="none" stroke="#ffe3b0" stroke-width="5.5" stroke-linecap="round"
        stroke-dasharray="342 2000"
        stroke-dashoffset="-422" opacity=".9"/>
<circle cx="263.8" cy="444.5" r="2.1" fill="#8fd8ff" fill-opacity="0.17"/>
<circle cx="257.5" cy="424.5" r="2.1" fill="#8fd8ff" fill-opacity="0.13"/>
<circle cx="235.4" cy="449.4" r="2.1" fill="#8fd8ff" fill-opacity="0.18"/>
<circle cx="288.4" cy="436.0" r="2.1" fill="#8fd8ff" fill-opacity="0.15"/>
<circle cx="229.5" cy="420.7" r="2.1" fill="#8fd8ff" fill-opacity="0.12"/>
<circle cx="260.5" cy="462.6" r="2.1" fill="#8fd8ff" fill-opacity="0.21"/>
<circle cx="280.8" cy="413.0" r="2.1" fill="#8fd8ff" fill-opacity="0.11"/>
<circle cx="208.8" cy="439.5" r="2.1" fill="#8fd8ff" fill-opacity="0.17"/>
<circle cx="301.0" cy="450.5" r="2.1" fill="#8fd8ff" fill-opacity="0.19"/>
<circle cx="242.4" cy="402.5" r="2.1" fill="#8fd8ff" fill-opacity="0.09"/>
<circle cx="228.8" cy="466.3" r="2.1" fill="#8fd8ff" fill-opacity="0.22"/>
<circle cx="308.9" cy="418.3" r="2.1" fill="#8fd8ff" fill-opacity="0.13"/>
<circle cx="201.2" cy="416.9" r="2.1" fill="#8fd8ff" fill-opacity="0.13"/>
<circle cx="286.7" cy="469.3" r="2.1" fill="#8fd8ff" fill-opacity="0.23"/>
<circle cx="272.9" cy="393.4" r="2.1" fill="#8fd8ff" fill-opacity="0.08"/>
<circle cx="194.3" cy="451.8" r="2.1" fill="#8fd8ff" fill-opacity="0.21"/>
<circle cx="326.2" cy="436.7" r="2.1" fill="#8fd8ff" fill-opacity="0.18"/>
<circle cx="217.3" cy="394.0" r="2.1" fill="#8fd8ff" fill-opacity="0.08"/>
<circle cx="246.6" cy="478.7" r="3.4" fill="#8fd8ff" fill-opacity="0.47"/>
<circle cx="308.9" cy="397.2" r="2.1" fill="#8fd8ff" fill-opacity="0.09"/>
<circle cx="178.4" cy="424.0" r="2.1" fill="#8fd8ff" fill-opacity="0.16"/>
<circle cx="319.1" cy="462.2" r="2.1" fill="#8fd8ff" fill-opacity="0.23"/>
<circle cx="251.5" cy="379.5" r="2.1" fill="#8fd8ff" fill-opacity="0.05"/>
<circle cx="197.6" cy="468.0" r="2.1" fill="#8fd8ff" fill-opacity="0.25"/>
<circle cx="338.2" cy="414.9" r="2.1" fill="#8fd8ff" fill-opacity="0.15"/>
<circle cx="189.4" cy="394.4" r="2.1" fill="#8fd8ff" fill-opacity="0.10"/>
<circle cx="280.2" cy="482.5" r="3.4" fill="#8fd8ff" fill-opacity="0.50"/>
<circle cx="294.4" cy="377.9" r="2.1" fill="#8fd8ff" fill-opacity="0.06"/>
<circle cx="165.1" cy="438.7" r="2.1" fill="#8fd8ff" fill-opacity="0.20"/>
<circle cx="346.5" cy="443.7" r="2.1" fill="#8fd8ff" fill-opacity="0.21"/>
<circle cx="222.8" cy="372.4" r="2.1" fill="#8fd8ff" fill-opacity="0.05"/>
<circle cx="219.7" cy="482.9" r="3.4" fill="#8fd8ff" fill-opacity="0.52"/>
<circle cx="335.3" cy="390.9" r="2.1" fill="#8fd8ff" fill-opacity="0.10"/>
<circle cx="163.7" cy="402.9" r="2.1" fill="#8fd8ff" fill-opacity="0.14"/>
<circle cx="320.4" cy="474.4" r="3.4" fill="#8fd8ff" fill-opacity="0.50"/>
<circle cx="269.3" cy="363.2" r="2.1" fill="#8fd8ff" fill-opacity="0.04"/>
<circle cx="166.2" cy="458.0" r="3.4" fill="#8fd8ff" fill-opacity="0.46"/>
<circle cx="361.2" cy="418.1" r="2.1" fill="#8fd8ff" fill-opacity="0.18"/>
<circle cx="191.2" cy="372.5" r="2.1" fill="#8fd8ff" fill-opacity="0.07"/>
<circle cx="258.8" cy="490.3" r="3.4" fill="#8fd8ff" fill-opacity="0.56"/>
<circle cx="318.9" cy="369.0" r="2.1" fill="#8fd8ff" fill-opacity="0.06"/>
<circle cx="145.1" cy="418.5" r="2.1" fill="#8fd8ff" fill-opacity="0.18"/>
<circle cx="355.9" cy="454.3" r="3.4" fill="#8fd8ff" fill-opacity="0.46"/>
<circle cx="186.3" cy="477.6" r="3.4" fill="#8fd8ff" fill-opacity="0.54"/>
<circle cx="360.2" cy="390.5" r="2.1" fill="#8fd8ff" fill-opacity="0.13"/>
<circle cx="160.5" cy="380.1" r="2.1" fill="#8fd8ff" fill-opacity="0.10"/>
<circle cx="307.5" cy="485.4" r="3.4" fill="#8fd8ff" fill-opacity="0.57"/>
<circle cx="139.4" cy="439.9" r="2.1" fill="#8fd8ff" fill-opacity="0.24"/>
<circle cx="377.9" cy="426.0" r="2.1" fill="#8fd8ff" fill-opacity="0.22"/>
<circle cx="202.2" cy="352.7" r="2.1" fill="#8fd8ff" fill-opacity="0.04"/>
<circle cx="226.6" cy="491.3" r="3.4" fill="#8fd8ff" fill-opacity="0.60"/>
<circle cx="344.6" cy="365.1" r="2.1" fill="#8fd8ff" fill-opacity="0.08"/>
<circle cx="135.1" cy="394.9" r="2.1" fill="#8fd8ff" fill-opacity="0.16"/>
<circle cx="354.0" cy="466.6" r="3.4" fill="#8fd8ff" fill-opacity="0.54"/>
<circle cx="152.4" cy="463.5" r="3.4" fill="#8fd8ff" fill-opacity="0.53"/>
<circle cx="382.3" cy="394.8" r="2.1" fill="#8fd8ff" fill-opacity="0.16"/>
<circle cx="166.7" cy="357.9" r="2.1" fill="#8fd8ff" fill-opacity="0.07"/>
<circle cx="281.6" cy="492.7" r="3.4" fill="#8fd8ff" fill-opacity="0.62"/>
<circle cx="317.6" cy="344.3" r="2.1" fill="#8fd8ff" fill-opacity="0.04"/>
<circle cx="120.4" cy="416.4" r="2.1" fill="#8fd8ff" fill-opacity="0.22"/>
<circle cx="386.8" cy="437.2" r="3.4" fill="#8fd8ff" fill-opacity="0.47"/>
<circle cx="188.1" cy="483.9" r="3.4" fill="#8fd8ff" fill-opacity="0.61"/>
<circle cx="370.1" cy="365.4" r="2.1" fill="#8fd8ff" fill-opacity="0.11"/>
<circle cx="134.7" cy="370.5" r="2.1" fill="#8fd8ff" fill-opacity="0.12"/>
<circle cx="339.4" cy="478.5" r="3.4" fill="#8fd8ff" fill-opacity="0.61"/>
<circle cx="122.9" cy="442.3" r="3.4" fill="#8fd8ff" fill-opacity="0.51"/>
<circle cx="400.2" cy="403.0" r="2.1" fill="#8fd8ff" fill-opacity="0.21"/>
<circle cx="180.5" cy="337.6" r="2.1" fill="#8fd8ff" fill-opacity="0.04"/>
<circle cx="244.6" cy="493.8" r="3.4" fill="#8fd8ff" fill-opacity="0.66"/>
<circle cx="344.6" cy="340.8" r="2.1" fill="#8fd8ff" fill-opacity="0.05"/>
<circle cx="110.9" cy="390.2" r="2.1" fill="#8fd8ff" fill-opacity="0.19"/>
<circle cx="385.8" cy="450.4" r="3.4" fill="#8fd8ff" fill-opacity="0.55"/>
<circle cx="148.9" cy="468.1" r="3.4" fill="#8fd8ff" fill-opacity="0.61"/>
<circle cx="393.9" cy="369.7" r="2.1" fill="#8fd8ff" fill-opacity="0.15"/>
<circle cx="142.9" cy="347.0" r="2.1" fill="#8fd8ff" fill-opacity="0.09"/>
<circle cx="311.6" cy="487.3" r="3.4" fill="#8fd8ff" fill-opacity="0.67"/>
<circle cx="101.7" cy="416.1" r="3.4" fill="#8fd8ff" fill-opacity="0.46"/>
<circle cx="411.5" cy="414.5" r="3.4" fill="#8fd8ff" fill-opacity="0.46"/>
<circle cx="200.6" cy="486.8" r="3.4" fill="#8fd8ff" fill-opacity="0.68"/>
<circle cx="371.8" cy="340.8" r="2.1" fill="#8fd8ff" fill-opacity="0.08"/>
<circle cx="111.0" cy="363.8" r="2.1" fill="#8fd8ff" fill-opacity="0.15"/>
<circle cx="372.7" cy="463.7" r="3.4" fill="#8fd8ff" fill-opacity="0.63"/>
<circle cx="114.4" cy="445.1" r="3.4" fill="#8fd8ff" fill-opacity="0.58"/>
<circle cx="414.3" cy="377.5" r="2.1" fill="#8fd8ff" fill-opacity="0.19"/>
<circle cx="158.2" cy="325.7" r="2.1" fill="#8fd8ff" fill-opacity="0.05"/>
<circle cx="271.6" cy="490.4" r="3.4" fill="#8fd8ff" fill-opacity="0.71"/>
<circle cx="90.5" cy="387.7" r="2.1" fill="#8fd8ff" fill-opacity="0.22"/>
<circle cx="413.8" cy="428.1" r="3.4" fill="#8fd8ff" fill-opacity="0.55"/>
<circle cx="155.1" cy="471.0" r="3.4" fill="#8fd8ff" fill-opacity="0.68"/>
<circle cx="397.8" cy="344.3" r="2.1" fill="#8fd8ff" fill-opacity="0.12"/>
<circle cx="119.8" cy="338.8" r="2.1" fill="#8fd8ff" fill-opacity="0.11"/>
<circle cx="345.8" cy="474.6" r="3.4" fill="#8fd8ff" fill-opacity="0.69"/>
<circle cx="88.7" cy="417.0" r="3.4" fill="#8fd8ff" fill-opacity="0.54"/>
<circle cx="429.2" cy="388.4" r="2.1" fill="#8fd8ff" fill-opacity="0.24"/>
<circle cx="222.9" cy="485.3" r="3.4" fill="#8fd8ff" fill-opacity="0.73"/>
<circle cx="367.2" cy="317.4" r="2.1" fill="#8fd8ff" fill-opacity="0.06"/>
<circle cx="89.5" cy="359.3" r="2.1" fill="#8fd8ff" fill-opacity="0.18"/>
<circle cx="404.4" cy="442.4" r="3.4" fill="#8fd8ff" fill-opacity="0.63"/>
<circle cx="114.0" cy="447.3" r="3.4" fill="#8fd8ff" fill-opacity="0.65"/>
<circle cx="421.2" cy="351.1" r="2.1" fill="#8fd8ff" fill-opacity="0.17"/>
<circle cx="135.7" cy="316.1" r="2.1" fill="#8fd8ff" fill-opacity="0.07"/>
<circle cx="305.2" cy="480.4" r="3.4" fill="#8fd8ff" fill-opacity="0.75"/>
<circle cx="74.0" cy="386.5" r="3.4" fill="#8fd8ff" fill-opacity="0.47"/>
<circle cx="436.1" cy="401.8" r="3.4" fill="#8fd8ff" fill-opacity="0.53"/>
<circle cx="170.9" cy="470.9" r="3.4" fill="#8fd8ff" fill-opacity="0.74"/>
<circle cx="395.4" cy="319.7" r="2.1" fill="#8fd8ff" fill-opacity="0.10"/>
<circle cx="97.7" cy="332.4" r="2.1" fill="#8fd8ff" fill-opacity="0.14"/>
<circle cx="381.0" cy="455.2" r="3.4" fill="#8fd8ff" fill-opacity="0.71"/>
<circle cx="82.2" cy="418.0" r="3.4" fill="#8fd8ff" fill-opacity="0.61"/>
<circle cx="440.0" cy="360.9" r="2.1" fill="#8fd8ff" fill-opacity="0.22"/>
<circle cx="157.4" cy="296.3" r="2.1" fill="#8fd8ff" fill-opacity="0.03"/>
<circle cx="253.4" cy="478.3" r="3.4" fill="#8fd8ff" fill-opacity="0.78"/>
<circle cx="357.6" cy="295.6" r="2.1" fill="#8fd8ff" fill-opacity="0.04"/>
<circle cx="70.5" cy="356.1" r="2.1" fill="#8fd8ff" fill-opacity="0.22"/>
<circle cx="432.1" cy="416.3" r="3.4" fill="#8fd8ff" fill-opacity="0.62"/>
<circle cx="122.3" cy="447.9" r="3.4" fill="#8fd8ff" fill-opacity="0.72"/>
<circle cx="421.6" cy="325.0" r="2.1" fill="#8fd8ff" fill-opacity="0.15"/>
<circle cx="113.5" cy="308.1" r="2.1" fill="#8fd8ff" fill-opacity="0.10"/>
<circle cx="342.5" cy="463.8" r="3.4" fill="#8fd8ff" fill-opacity="0.77"/>
<circle cx="62.2" cy="386.0" r="3.4" fill="#8fd8ff" fill-opacity="0.55"/>
<circle cx="451.9" cy="373.1" r="3.4" fill="#8fd8ff" fill-opacity="0.50"/>
<circle cx="195.9" cy="466.7" r="3.4" fill="#8fd8ff" fill-opacity="0.79"/>
<circle cx="387.8" cy="296.5" r="2.1" fill="#8fd8ff" fill-opacity="0.07"/>
<circle cx="77.0" cy="327.4" r="2.1" fill="#8fd8ff" fill-opacity="0.17"/>
<circle cx="414.1" cy="430.3" r="3.4" fill="#8fd8ff" fill-opacity="0.71"/>
<circle cx="82.8" cy="418.4" r="3.4" fill="#8fd8ff" fill-opacity="0.68"/>
<circle cx="444.1" cy="333.1" r="2.1" fill="#8fd8ff" fill-opacity="0.20"/>
<circle cx="135.2" cy="286.9" r="2.1" fill="#8fd8ff" fill-opacity="0.06"/>
<circle cx="290.3" cy="465.2" r="3.4" fill="#8fd8ff" fill-opacity="0.81"/>
<circle cx="54.7" cy="353.7" r="3.4" fill="#8fd8ff" fill-opacity="0.47"/>
<circle cx="453.9" cy="387.0" r="3.4" fill="#8fd8ff" fill-opacity="0.60"/>
<circle cx="139.6" cy="445.6" r="3.4" fill="#8fd8ff" fill-opacity="0.78"/>
<circle cx="416.4" cy="300.1" r="2.1" fill="#8fd8ff" fill-opacity="0.12"/>
<circle cx="91.9" cy="301.4" r="2.1" fill="#8fd8ff" fill-opacity="0.13"/>
<circle cx="380.3" cy="441.1" r="3.4" fill="#8fd8ff" fill-opacity="0.77"/>
<circle cx="56.1" cy="385.3" r="3.4" fill="#8fd8ff" fill-opacity="0.62"/>
<circle cx="460.8" cy="343.8" r="3.4" fill="#8fd8ff" fill-opacity="0.47"/>
<circle cx="229.1" cy="457.2" r="3.4" fill="#8fd8ff" fill-opacity="0.83"/>
<circle cx="376.1" cy="274.8" r="2.1" fill="#8fd8ff" fill-opacity="0.05"/>
<circle cx="58.5" cy="323.2" r="2.1" fill="#8fd8ff" fill-opacity="0.21"/>
<circle cx="442.8" cy="401.1" r="3.4" fill="#8fd8ff" fill-opacity="0.69"/>
<circle cx="91.6" cy="416.9" r="3.4" fill="#8fd8ff" fill-opacity="0.74"/>
<circle cx="442.2" cy="306.2" r="2.1" fill="#8fd8ff" fill-opacity="0.18"/>
<circle cx="113.3" cy="278.7" r="2.1" fill="#8fd8ff" fill-opacity="0.08"/>
<circle cx="330.7" cy="445.8" r="3.4" fill="#8fd8ff" fill-opacity="0.83"/>
<circle cx="43.1" cy="351.5" r="3.4" fill="#8fd8ff" fill-opacity="0.55"/>
<circle cx="468.9" cy="356.3" r="3.4" fill="#8fd8ff" fill-opacity="0.57"/>
<circle cx="166.1" cy="439.2" r="3.4" fill="#8fd8ff" fill-opacity="0.83"/>
<circle cx="406.8" cy="276.6" r="2.1" fill="#8fd8ff" fill-opacity="0.10"/>
<circle cx="71.7" cy="295.6" r="2.1" fill="#8fd8ff" fill-opacity="0.17"/>
<circle cx="415.7" cy="413.2" r="3.4" fill="#8fd8ff" fill-opacity="0.77"/>
<circle cx="56.7" cy="383.5" r="3.4" fill="#8fd8ff" fill-opacity="0.69"/>
<circle cx="463.2" cy="314.8" r="2.1" fill="#8fd8ff" fill-opacity="0.23"/>
<circle cx="139.5" cy="259.4" r="2.1" fill="#8fd8ff" fill-opacity="0.05"/>
<circle cx="269.9" cy="460.3" r="3.4" fill="#8fd8ff" fill-opacity="0.81"/>
<circle cx="361.2" cy="254.8" r="2.1" fill="#8fd8ff" fill-opacity="0.03"/>
<circle cx="42.9" cy="319.3" r="3.4" fill="#8fd8ff" fill-opacity="0.46"/>
<circle cx="465.1" cy="369.5" r="3.4" fill="#8fd8ff" fill-opacity="0.67"/>
<circle cx="109.4" cy="412.4" r="3.4" fill="#8fd8ff" fill-opacity="0.80"/>
<circle cx="435.2" cy="280.7" r="2.1" fill="#8fd8ff" fill-opacity="0.15"/>
<circle cx="92.0" cy="271.3" r="2.1" fill="#8fd8ff" fill-opacity="0.12"/>
<circle cx="373.5" cy="423.3" r="3.4" fill="#8fd8ff" fill-opacity="0.83"/>
<circle cx="36.8" cy="348.8" r="3.4" fill="#8fd8ff" fill-opacity="0.62"/>
<circle cx="476.9" cy="325.3" r="3.4" fill="#8fd8ff" fill-opacity="0.53"/>
<circle cx="193.4" cy="451.1" r="3.4" fill="#8fd8ff" fill-opacity="0.80"/>
<circle cx="393.4" cy="254.8" r="2.1" fill="#8fd8ff" fill-opacity="0.07"/>
<circle cx="53.3" cy="290.1" r="2.1" fill="#8fd8ff" fill-opacity="0.21"/>
<circle cx="446.0" cy="381.7" r="3.4" fill="#8fd8ff" fill-opacity="0.75"/>
<circle cx="65.2" cy="379.8" r="3.4" fill="#8fd8ff" fill-opacity="0.76"/>
<circle cx="459.8" cy="287.1" r="2.1" fill="#8fd8ff" fill-opacity="0.21"/>
<circle cx="117.7" cy="250.6" r="2.1" fill="#8fd8ff" fill-opacity="0.08"/>
<circle cx="322.0" cy="450.2" r="3.4" fill="#8fd8ff" fill-opacity="0.79"/>
<circle cx="31.2" cy="315.3" r="3.4" fill="#8fd8ff" fill-opacity="0.54"/>
<circle cx="480.1" cy="336.9" r="3.4" fill="#8fd8ff" fill-opacity="0.63"/>
<circle cx="127.1" cy="415.0" r="3.4" fill="#8fd8ff" fill-opacity="0.82"/>
<circle cx="423.9" cy="256.9" r="2.1" fill="#8fd8ff" fill-opacity="0.12"/>
<circle cx="72.0" cy="264.4" r="2.1" fill="#8fd8ff" fill-opacity="0.16"/>
<circle cx="409.4" cy="390.4" r="3.4" fill="#8fd8ff" fill-opacity="0.83"/>
<circle cx="36.9" cy="344.9" r="3.4" fill="#8fd8ff" fill-opacity="0.69"/>
<circle cx="478.3" cy="295.2" r="3.4" fill="#8fd8ff" fill-opacity="0.49"/>
<circle cx="147.2" cy="233.2" r="2.1" fill="#8fd8ff" fill-opacity="0.04"/>
<circle cx="237.7" cy="460.8" r="3.4" fill="#8fd8ff" fill-opacity="0.76"/>
<circle cx="377.2" cy="234.8" r="2.1" fill="#8fd8ff" fill-opacity="0.05"/>
<circle cx="37.8" cy="284.7" r="3.4" fill="#8fd8ff" fill-opacity="0.45"/>
<circle cx="469.5" cy="348.1" r="3.4" fill="#8fd8ff" fill-opacity="0.73"/>
<circle cx="82.4" cy="373.1" r="3.4" fill="#8fd8ff" fill-opacity="0.81"/>
<circle cx="451.3" cy="261.0" r="2.1" fill="#8fd8ff" fill-opacity="0.18"/>
<circle cx="96.7" cy="242.4" r="2.1" fill="#8fd8ff" fill-opacity="0.11"/>
<circle cx="376.4" cy="422.2" r="3.4" fill="#8fd8ff" fill-opacity="0.78"/>
<circle cx="24.5" cy="310.5" r="3.4" fill="#8fd8ff" fill-opacity="0.62"/>
<circle cx="487.9" cy="304.6" r="3.4" fill="#8fd8ff" fill-opacity="0.59"/>
<circle cx="146.5" cy="429.9" r="3.4" fill="#8fd8ff" fill-opacity="0.76"/>
<circle cx="409.2" cy="234.9" r="2.1" fill="#8fd8ff" fill-opacity="0.10"/>
<circle cx="53.9" cy="257.6" r="2.1" fill="#8fd8ff" fill-opacity="0.20"/>
<circle cx="441.7" cy="357.1" r="3.4" fill="#8fd8ff" fill-opacity="0.81"/>
<circle cx="44.6" cy="338.7" r="3.4" fill="#8fd8ff" fill-opacity="0.76"/>
<circle cx="473.8" cy="266.7" r="2.1" fill="#8fd8ff" fill-opacity="0.24"/>
<circle cx="125.7" cy="223.7" r="2.1" fill="#8fd8ff" fill-opacity="0.07"/>
<circle cx="304.0" cy="456.4" r="3.4" fill="#8fd8ff" fill-opacity="0.71"/>
<circle cx="358.8" cy="216.3" r="2.1" fill="#8fd8ff" fill-opacity="0.04"/>
<circle cx="26.0" cy="278.7" r="3.4" fill="#8fd8ff" fill-opacity="0.53"/>
<circle cx="485.1" cy="314.1" r="3.4" fill="#8fd8ff" fill-opacity="0.69"/>
<circle cx="89.8" cy="375.9" r="3.4" fill="#8fd8ff" fill-opacity="0.81"/>
<circle cx="438.8" cy="236.8" r="2.1" fill="#8fd8ff" fill-opacity="0.16"/>
<circle cx="77.1" cy="234.3" r="2.1" fill="#8fd8ff" fill-opacity="0.15"/>
<circle cx="419.7" cy="379.5" r="3.4" fill="#8fd8ff" fill-opacity="0.79"/>
<circle cx="24.0" cy="304.1" r="3.4" fill="#8fd8ff" fill-opacity="0.69"/>
<circle cx="488.7" cy="273.6" r="3.4" fill="#8fd8ff" fill-opacity="0.55"/>
<circle cx="157.6" cy="208.2" r="2.1" fill="#8fd8ff" fill-opacity="0.04"/>
<circle cx="184.3" cy="449.5" r="3.4" fill="#8fd8ff" fill-opacity="0.68"/>
<circle cx="391.9" cy="214.7" r="2.1" fill="#8fd8ff" fill-opacity="0.08"/>
<circle cx="38.6" cy="250.4" r="2.1" fill="#8fd8ff" fill-opacity="0.24"/>
<circle cx="466.5" cy="322.2" r="3.4" fill="#8fd8ff" fill-opacity="0.78"/>
<circle cx="60.9" cy="329.4" r="3.4" fill="#8fd8ff" fill-opacity="0.82"/>
<circle cx="464.2" cy="240.1" r="2.1" fill="#8fd8ff" fill-opacity="0.21"/>
<circle cx="105.2" cy="214.5" r="2.1" fill="#8fd8ff" fill-opacity="0.10"/>
<circle cx="379.8" cy="421.0" r="3.4" fill="#8fd8ff" fill-opacity="0.69"/>
<circle cx="19.1" cy="271.6" r="3.4" fill="#8fd8ff" fill-opacity="0.60"/>
<circle cx="493.0" cy="280.8" r="3.4" fill="#8fd8ff" fill-opacity="0.65"/>
<circle cx="95.6" cy="385.0" r="3.4" fill="#8fd8ff" fill-opacity="0.73"/>
<circle cx="423.0" cy="214.5" r="2.1" fill="#8fd8ff" fill-opacity="0.13"/>
<circle cx="59.5" cy="226.0" r="2.1" fill="#8fd8ff" fill-opacity="0.19"/>
<circle cx="445.7" cy="333.2" r="3.4" fill="#8fd8ff" fill-opacity="0.81"/>
<circle cx="31.0" cy="295.3" r="3.4" fill="#8fd8ff" fill-opacity="0.75"/>
<circle cx="483.4" cy="244.5" r="3.4" fill="#8fd8ff" fill-opacity="0.50"/>
<circle cx="136.5" cy="197.9" r="2.1" fill="#8fd8ff" fill-opacity="0.07"/>
<circle cx="263.6" cy="463.0" r="3.4" fill="#8fd8ff" fill-opacity="0.60"/>
<circle cx="372.6" cy="196.0" r="2.1" fill="#8fd8ff" fill-opacity="0.07"/>
<circle cx="27.2" cy="242.4" r="3.4" fill="#8fd8ff" fill-opacity="0.51"/>
<circle cx="483.0" cy="287.2" r="3.4" fill="#8fd8ff" fill-opacity="0.75"/>
<circle cx="62.8" cy="324.4" r="3.4" fill="#8fd8ff" fill-opacity="0.80"/>
<circle cx="450.7" cy="215.6" r="2.1" fill="#8fd8ff" fill-opacity="0.19"/>
<circle cx="86.1" cy="205.2" r="2.1" fill="#8fd8ff" fill-opacity="0.14"/>
<circle cx="433.9" cy="359.9" r="3.4" fill="#8fd8ff" fill-opacity="0.72"/>
<circle cx="18.4" cy="262.6" r="3.4" fill="#8fd8ff" fill-opacity="0.67"/>
<circle cx="493.5" cy="249.2" r="3.4" fill="#8fd8ff" fill-opacity="0.61"/>
<circle cx="169.9" cy="184.0" r="2.1" fill="#8fd8ff" fill-opacity="0.04"/>
<circle cx="108.0" cy="400.7" r="3.4" fill="#8fd8ff" fill-opacity="0.62"/>
<circle cx="404.7" cy="194.0" r="2.1" fill="#8fd8ff" fill-opacity="0.11"/>
<circle cx="44.8" cy="217.0" r="2.1" fill="#8fd8ff" fill-opacity="0.23"/>
<circle cx="455.8" cy="290.9" r="3.4" fill="#8fd8ff" fill-opacity="0.83"/>
<circle cx="46.4" cy="283.3" r="3.4" fill="#8fd8ff" fill-opacity="0.81"/>
<circle cx="473.1" cy="217.5" r="3.4" fill="#8fd8ff" fill-opacity="0.45"/>
<circle cx="116.6" cy="187.7" r="2.1" fill="#8fd8ff" fill-opacity="0.10"/>
<circle cx="387.9" cy="416.2" r="3.4" fill="#8fd8ff" fill-opacity="0.56"/>
<circle cx="352.0" cy="178.8" r="2.1" fill="#8fd8ff" fill-opacity="0.05"/>
<circle cx="20.6" cy="232.9" r="3.4" fill="#8fd8ff" fill-opacity="0.59"/>
<circle cx="491.1" cy="253.3" r="3.4" fill="#8fd8ff" fill-opacity="0.71"/>
<circle cx="59.3" cy="316.8" r="3.4" fill="#8fd8ff" fill-opacity="0.73"/>
<circle cx="433.9" cy="193.0" r="2.1" fill="#8fd8ff" fill-opacity="0.17"/>
<circle cx="69.4" cy="195.4" r="2.1" fill="#8fd8ff" fill-opacity="0.18"/>
<circle cx="456.7" cy="300.2" r="3.4" fill="#8fd8ff" fill-opacity="0.76"/>
<circle cx="25.1" cy="251.1" r="3.4" fill="#8fd8ff" fill-opacity="0.74"/>
<circle cx="487.7" cy="219.6" r="3.4" fill="#8fd8ff" fill-opacity="0.56"/>
<circle cx="149.4" cy="172.9" r="2.1" fill="#8fd8ff" fill-opacity="0.07"/>
<circle cx="150.3" cy="435.4" r="3.4" fill="#8fd8ff" fill-opacity="0.48"/>
<circle cx="384.6" cy="175.2" r="2.1" fill="#8fd8ff" fill-opacity="0.10"/>
<circle cx="34.2" cy="206.9" r="3.4" fill="#8fd8ff" fill-opacity="0.50"/>
<circle cx="473.1" cy="255.4" r="3.4" fill="#8fd8ff" fill-opacity="0.79"/>
<circle cx="51.6" cy="268.6" r="3.4" fill="#8fd8ff" fill-opacity="0.81"/>
<circle cx="458.5" cy="192.7" r="2.1" fill="#8fd8ff" fill-opacity="0.22"/>
<circle cx="98.4" cy="177.1" r="2.1" fill="#8fd8ff" fill-opacity="0.14"/>
<circle cx="454.9" cy="313.4" r="3.4" fill="#8fd8ff" fill-opacity="0.61"/>
<circle cx="330.5" cy="162.6" r="2.1" fill="#8fd8ff" fill-opacity="0.05"/>
<circle cx="20.3" cy="221.5" r="3.4" fill="#8fd8ff" fill-opacity="0.66"/>
<circle cx="491.5" cy="221.3" r="3.4" fill="#8fd8ff" fill-opacity="0.66"/>
<circle cx="183.6" cy="160.5" r="2.1" fill="#8fd8ff" fill-opacity="0.05"/>
<circle cx="53.0" cy="296.4" r="3.4" fill="#8fd8ff" fill-opacity="0.62"/>
<circle cx="414.7" cy="172.3" r="2.1" fill="#8fd8ff" fill-opacity="0.15"/>
<circle cx="55.8" cy="184.7" r="2.1" fill="#8fd8ff" fill-opacity="0.22"/>
<circle cx="460.9" cy="253.6" r="3.4" fill="#8fd8ff" fill-opacity="0.80"/>
<circle cx="40.1" cy="236.4" r="3.4" fill="#8fd8ff" fill-opacity="0.79"/>
<circle cx="476.5" cy="192.4" r="3.4" fill="#8fd8ff" fill-opacity="0.51"/>
<circle cx="130.4" cy="161.6" r="2.1" fill="#8fd8ff" fill-opacity="0.11"/>
<circle cx="435.5" cy="362.6" r="3.4" fill="#8fd8ff" fill-opacity="0.40"/>
<circle cx="363.3" cy="157.6" r="2.1" fill="#8fd8ff" fill-opacity="0.09"/>
<circle cx="28.7" cy="195.2" r="3.4" fill="#8fd8ff" fill-opacity="0.57"/>
<circle cx="481.3" cy="221.3" r="3.4" fill="#8fd8ff" fill-opacity="0.75"/>
<circle cx="218.3" cy="149.9" r="2.1" fill="#8fd8ff" fill-opacity="0.04"/>
<circle cx="50.7" cy="244.0" r="3.4" fill="#8fd8ff" fill-opacity="0.75"/>
<circle cx="440.8" cy="169.9" r="2.1" fill="#8fd8ff" fill-opacity="0.20"/>
<circle cx="83.0" cy="165.7" r="2.1" fill="#8fd8ff" fill-opacity="0.18"/>
<circle cx="461.7" cy="241.8" r="3.4" fill="#8fd8ff" fill-opacity="0.70"/>
<circle cx="308.6" cy="147.4" r="2.1" fill="#8fd8ff" fill-opacity="0.05"/>
<circle cx="27.5" cy="207.3" r="3.4" fill="#8fd8ff" fill-opacity="0.72"/>
<circle cx="485.0" cy="191.6" r="3.4" fill="#8fd8ff" fill-opacity="0.62"/>
<circle cx="164.0" cy="148.5" r="2.1" fill="#8fd8ff" fill-opacity="0.08"/>
<circle cx="50.8" cy="221.5" r="3.4" fill="#8fd8ff" fill-opacity="0.49"/>
<circle cx="393.8" cy="153.2" r="2.1" fill="#8fd8ff" fill-opacity="0.13"/>
<circle cx="46.7" cy="172.6" r="3.4" fill="#8fd8ff" fill-opacity="0.48"/>
<circle cx="456.8" cy="218.0" r="3.4" fill="#8fd8ff" fill-opacity="0.83"/>
<circle cx="252.9" cy="140.8" r="2.1" fill="#8fd8ff" fill-opacity="0.04"/>
<circle cx="55.3" cy="216.2" r="3.4" fill="#8fd8ff" fill-opacity="0.82"/>
<circle cx="460.9" cy="167.4" r="3.4" fill="#8fd8ff" fill-opacity="0.47"/>
<circle cx="113.6" cy="149.7" r="2.1" fill="#8fd8ff" fill-opacity="0.14"/>
<circle cx="452.5" cy="188.6" r="3.4" fill="#8fd8ff" fill-opacity="0.53"/>
<circle cx="341.3" cy="141.1" r="2.1" fill="#8fd8ff" fill-opacity="0.08"/>
<circle cx="29.7" cy="181.3" r="3.4" fill="#8fd8ff" fill-opacity="0.64"/>
<circle cx="481.2" cy="189.4" r="3.4" fill="#8fd8ff" fill-opacity="0.71"/>
<circle cx="198.2" cy="137.2" r="2.1" fill="#8fd8ff" fill-opacity="0.07"/>
<circle cx="58.1" cy="197.3" r="3.4" fill="#8fd8ff" fill-opacity="0.67"/>
<circle cx="420.6" cy="149.0" r="2.1" fill="#8fd8ff" fill-opacity="0.18"/>
<circle cx="71.3" cy="153.3" r="2.1" fill="#8fd8ff" fill-opacity="0.22"/>
<circle cx="453.4" cy="199.2" r="3.4" fill="#8fd8ff" fill-opacity="0.77"/>
<circle cx="286.8" cy="132.8" r="2.1" fill="#8fd8ff" fill-opacity="0.06"/>
<circle cx="42.9" cy="190.0" r="3.4" fill="#8fd8ff" fill-opacity="0.77"/>
<circle cx="472.8" cy="164.3" r="3.4" fill="#8fd8ff" fill-opacity="0.57"/>
<circle cx="146.3" cy="136.0" r="2.1" fill="#8fd8ff" fill-opacity="0.11"/>
<circle cx="219.9" cy="50.8" r="3.4" fill="#8fd8ff" fill-opacity="0.45"/>
<circle cx="371.8" cy="135.3" r="2.1" fill="#8fd8ff" fill-opacity="0.12"/>
<circle cx="43.2" cy="158.7" r="3.4" fill="#8fd8ff" fill-opacity="0.56"/>
<circle cx="462.5" cy="184.7" r="3.4" fill="#8fd8ff" fill-opacity="0.79"/>
<circle cx="232.3" cy="127.3" r="2.1" fill="#8fd8ff" fill-opacity="0.06"/>
<circle cx="64.1" cy="183.6" r="3.4" fill="#8fd8ff" fill-opacity="0.79"/>
<circle cx="442.0" cy="144.6" r="2.1" fill="#8fd8ff" fill-opacity="0.24"/>
<circle cx="100.2" cy="136.9" r="2.1" fill="#8fd8ff" fill-opacity="0.18"/>
<circle cx="434.8" cy="152.5" r="3.4" fill="#8fd8ff" fill-opacity="0.66"/>
<circle cx="319.2" cy="125.4" r="2.1" fill="#8fd8ff" fill-opacity="0.09"/>
<circle cx="38.4" cy="164.7" r="3.4" fill="#8fd8ff" fill-opacity="0.70"/>
<circle cx="473.7" cy="159.9" r="3.4" fill="#8fd8ff" fill-opacity="0.67"/>
<circle cx="179.8" cy="124.1" r="2.1" fill="#8fd8ff" fill-opacity="0.10"/>
<circle cx="100.0" cy="119.8" r="3.4" fill="#8fd8ff" fill-opacity="0.61"/>
<circle cx="398.6" cy="129.6" r="2.1" fill="#8fd8ff" fill-opacity="0.17"/>
<circle cx="64.6" cy="139.3" r="3.4" fill="#8fd8ff" fill-opacity="0.48"/>
<circle cx="441.8" cy="170.1" r="3.4" fill="#8fd8ff" fill-opacity="0.82"/>
<circle cx="265.6" cy="118.4" r="2.1" fill="#8fd8ff" fill-opacity="0.07"/>
<circle cx="66.9" cy="169.1" r="3.4" fill="#8fd8ff" fill-opacity="0.82"/>
<circle cx="455.9" cy="139.4" r="3.4" fill="#8fd8ff" fill-opacity="0.53"/>
<circle cx="131.5" cy="122.8" r="2.1" fill="#8fd8ff" fill-opacity="0.15"/>
<circle cx="341.5" cy="67.0" r="3.4" fill="#8fd8ff" fill-opacity="0.57"/>
<circle cx="349.1" cy="118.4" r="2.1" fill="#8fd8ff" fill-opacity="0.12"/>
<circle cx="46.8" cy="142.5" r="3.4" fill="#8fd8ff" fill-opacity="0.62"/>
<circle cx="461.2" cy="153.3" r="3.4" fill="#8fd8ff" fill-opacity="0.75"/>
<circle cx="213.2" cy="113.6" r="2.1" fill="#8fd8ff" fill-opacity="0.09"/>
<circle cx="88.1" cy="137.3" r="3.4" fill="#8fd8ff" fill-opacity="0.75"/>
<circle cx="420.4" cy="123.4" r="2.1" fill="#8fd8ff" fill-opacity="0.22"/>
<circle cx="91.2" cy="122.7" r="2.1" fill="#8fd8ff" fill-opacity="0.22"/>
<circle cx="421.0" cy="133.3" r="3.4" fill="#8fd8ff" fill-opacity="0.75"/>
<circle cx="297.3" cy="110.1" r="2.1" fill="#8fd8ff" fill-opacity="0.10"/>
<circle cx="55.7" cy="145.0" r="3.4" fill="#8fd8ff" fill-opacity="0.75"/>
<circle cx="459.8" cy="132.9" r="3.4" fill="#8fd8ff" fill-opacity="0.62"/>
<circle cx="164.0" cy="110.5" r="2.1" fill="#8fd8ff" fill-opacity="0.13"/>
<circle cx="193.7" cy="58.6" r="3.4" fill="#8fd8ff" fill-opacity="0.62"/>
<circle cx="375.5" cy="111.3" r="2.1" fill="#8fd8ff" fill-opacity="0.16"/>
<circle cx="64.5" cy="123.4" r="3.4" fill="#8fd8ff" fill-opacity="0.54"/>
<circle cx="434.0" cy="143.8" r="3.4" fill="#8fd8ff" fill-opacity="0.81"/>
<circle cx="245.8" cy="104.0" r="2.1" fill="#8fd8ff" fill-opacity="0.10"/>
<circle cx="88.9" cy="137.9" r="3.4" fill="#8fd8ff" fill-opacity="0.82"/>
<circle cx="435.0" cy="116.5" r="3.4" fill="#8fd8ff" fill-opacity="0.50"/>
<circle cx="121.0" cy="108.4" r="2.1" fill="#8fd8ff" fill-opacity="0.19"/>
<circle cx="363.5" cy="79.9" r="3.4" fill="#8fd8ff" fill-opacity="0.69"/>
<circle cx="326.5" cy="102.0" r="2.1" fill="#8fd8ff" fill-opacity="0.13"/>
<circle cx="58.8" cy="123.7" r="3.4" fill="#8fd8ff" fill-opacity="0.68"/>
<circle cx="451.5" cy="124.4" r="3.4" fill="#8fd8ff" fill-opacity="0.70"/>
<circle cx="196.5" cy="99.4" r="2.1" fill="#8fd8ff" fill-opacity="0.12"/>
<circle cx="136.8" cy="88.1" r="3.4" fill="#8fd8ff" fill-opacity="0.73"/>
<circle cx="396.8" cy="103.7" r="2.1" fill="#8fd8ff" fill-opacity="0.21"/>
<circle cx="88.5" cy="106.9" r="3.4" fill="#8fd8ff" fill-opacity="0.48"/>
<circle cx="407.4" cy="118.1" r="3.4" fill="#8fd8ff" fill-opacity="0.81"/>
<circle cx="276.5" cy="94.9" r="2.1" fill="#8fd8ff" fill-opacity="0.11"/>
<circle cx="81.9" cy="122.3" r="3.4" fill="#8fd8ff" fill-opacity="0.79"/>
<circle cx="440.3" cy="108.2" r="3.4" fill="#8fd8ff" fill-opacity="0.58"/>
<circle cx="152.2" cy="95.8" r="2.1" fill="#8fd8ff" fill-opacity="0.17"/>
<circle cx="268.1" cy="50.1" r="3.4" fill="#8fd8ff" fill-opacity="0.69"/>
<circle cx="351.8" cy="93.8" r="2.1" fill="#8fd8ff" fill-opacity="0.17"/>
<circle cx="72.6" cy="105.1" r="3.4" fill="#8fd8ff" fill-opacity="0.61"/>
<circle cx="429.7" cy="113.4" r="3.4" fill="#8fd8ff" fill-opacity="0.77"/>
<circle cx="228.1" cy="89.2" r="2.1" fill="#8fd8ff" fill-opacity="0.13"/>
<circle cx="121.9" cy="101.1" r="3.4" fill="#8fd8ff" fill-opacity="0.81"/>
<circle cx="411.0" cy="95.2" r="3.4" fill="#8fd8ff" fill-opacity="0.47"/>
<circle cx="116.4" cy="92.5" r="2.1" fill="#8fd8ff" fill-opacity="0.23"/>
<circle cx="364.2" cy="81.5" r="3.4" fill="#8fd8ff" fill-opacity="0.78"/>
<circle cx="304.4" cy="85.9" r="2.1" fill="#8fd8ff" fill-opacity="0.14"/>
<circle cx="80.3" cy="102.1" r="3.4" fill="#8fd8ff" fill-opacity="0.72"/>
<circle cx="434.1" cy="98.0" r="3.4" fill="#8fd8ff" fill-opacity="0.66"/>
<circle cx="183.7" cy="84.3" r="2.1" fill="#8fd8ff" fill-opacity="0.16"/>
<circle cx="197.9" cy="58.8" r="3.4" fill="#8fd8ff" fill-opacity="0.75"/>
<circle cx="371.6" cy="84.9" r="2.1" fill="#8fd8ff" fill-opacity="0.21"/>
<circle cx="94.0" cy="88.9" r="3.4" fill="#8fd8ff" fill-opacity="0.54"/>
<circle cx="395.2" cy="99.8" r="3.4" fill="#8fd8ff" fill-opacity="0.81"/>
<circle cx="257.6" cy="79.3" r="2.1" fill="#8fd8ff" fill-opacity="0.14"/>
<circle cx="115.8" cy="96.8" r="3.4" fill="#8fd8ff" fill-opacity="0.81"/>
<circle cx="415.8" cy="85.3" r="3.4" fill="#8fd8ff" fill-opacity="0.55"/>
<circle cx="146.4" cy="79.7" r="2.1" fill="#8fd8ff" fill-opacity="0.21"/>
<circle cx="300.7" cy="55.5" r="3.4" fill="#8fd8ff" fill-opacity="0.77"/>
<circle cx="327.9" cy="76.5" r="2.1" fill="#8fd8ff" fill-opacity="0.18"/>
<circle cx="90.8" cy="84.4" r="3.4" fill="#8fd8ff" fill-opacity="0.66"/>
<circle cx="415.2" cy="85.6" r="3.4" fill="#8fd8ff" fill-opacity="0.72"/>
<circle cx="214.1" cy="73.5" r="2.1" fill="#8fd8ff" fill-opacity="0.16"/>
<circle cx="167.4" cy="71.4" r="3.4" fill="#8fd8ff" fill-opacity="0.81"/>
<circle cx="383.9" cy="74.9" r="3.4" fill="#8fd8ff" fill-opacity="0.46"/>
<circle cx="120.3" cy="74.7" r="3.4" fill="#8fd8ff" fill-opacity="0.49"/>
<circle cx="355.6" cy="77.4" r="3.4" fill="#8fd8ff" fill-opacity="0.83"/>
<circle cx="283.7" cy="69.4" r="2.1" fill="#8fd8ff" fill-opacity="0.17"/>
<circle cx="111.6" cy="78.1" r="3.4" fill="#8fd8ff" fill-opacity="0.75"/>
<circle cx="409.2" cy="73.6" r="3.4" fill="#8fd8ff" fill-opacity="0.63"/>
<circle cx="176.8" cy="67.8" r="2.1" fill="#8fd8ff" fill-opacity="0.20"/>
<circle cx="244.1" cy="51.4" r="3.4" fill="#8fd8ff" fill-opacity="0.80"/>
<circle cx="345.1" cy="66.4" r="2.1" fill="#8fd8ff" fill-opacity="0.22"/>
<circle cx="110.5" cy="68.8" r="3.4" fill="#8fd8ff" fill-opacity="0.60"/>
<circle cx="384.4" cy="71.2" r="3.4" fill="#8fd8ff" fill-opacity="0.77"/>
<circle cx="242.0" cy="62.9" r="2.1" fill="#8fd8ff" fill-opacity="0.18"/>
<circle cx="155.4" cy="69.7" r="3.4" fill="#8fd8ff" fill-opacity="0.81"/>
<circle cx="386.0" cy="63.6" r="3.4" fill="#8fd8ff" fill-opacity="0.54"/>
<circle cx="149.5" cy="61.7" r="3.4" fill="#8fd8ff" fill-opacity="0.46"/>
<circle cx="308.9" cy="58.4" r="3.4" fill="#8fd8ff" fill-opacity="0.82"/>
<circle cx="304.4" cy="58.9" r="2.1" fill="#8fd8ff" fill-opacity="0.20"/>
<circle cx="121.1" cy="61.4" r="3.4" fill="#8fd8ff" fill-opacity="0.69"/>
<circle cx="389.8" cy="60.2" r="3.4" fill="#8fd8ff" fill-opacity="0.68"/>
<circle cx="206.2" cy="56.4" r="2.1" fill="#8fd8ff" fill-opacity="0.21"/>
<circle cx="212.0" cy="56.3" r="3.4" fill="#8fd8ff" fill-opacity="0.83"/>
<circle cx="353.2" cy="55.2" r="3.4" fill="#8fd8ff" fill-opacity="0.47"/>
<circle cx="136.7" cy="54.7" r="3.4" fill="#8fd8ff" fill-opacity="0.55"/>
<circle cx="345.4" cy="55.3" r="3.4" fill="#8fd8ff" fill-opacity="0.79"/>
<circle cx="265.7" cy="51.9" r="2.1" fill="#8fd8ff" fill-opacity="0.20"/>
<circle cx="152.5" cy="52.6" r="3.4" fill="#8fd8ff" fill-opacity="0.75"/>
<circle cx="375.3" cy="50.8" r="3.4" fill="#8fd8ff" fill-opacity="0.60"/>
<circle cx="180.0" cy="49.4" r="3.4" fill="#8fd8ff" fill-opacity="0.45"/>
<circle cx="267.4" cy="49.0" r="3.4" fill="#8fd8ff" fill-opacity="0.82"/>
<circle cx="316.9" cy="47.6" r="2.1" fill="#8fd8ff" fill-opacity="0.24"/>
<circle cx="142.3" cy="46.5" r="3.4" fill="#8fd8ff" fill-opacity="0.64"/>
<circle cx="358.2" cy="45.3" r="3.4" fill="#8fd8ff" fill-opacity="0.72"/>
<circle cx="232.8" cy="44.8" r="2.1" fill="#8fd8ff" fill-opacity="0.22"/>
<circle cx="197.6" cy="42.7" r="3.4" fill="#8fd8ff" fill-opacity="0.78"/>
<circle cx="348.3" cy="42.6" r="3.4" fill="#8fd8ff" fill-opacity="0.54"/>
<circle cx="168.2" cy="41.6" r="3.4" fill="#8fd8ff" fill-opacity="0.53"/>
<circle cx="304.6" cy="38.9" r="3.4" fill="#8fd8ff" fill-opacity="0.78"/>
<circle cx="281.8" cy="40.2" r="2.1" fill="#8fd8ff" fill-opacity="0.24"/>
<circle cx="166.9" cy="37.2" r="3.4" fill="#8fd8ff" fill-opacity="0.70"/>
<circle cx="349.0" cy="36.6" r="3.4" fill="#8fd8ff" fill-opacity="0.65"/>
<circle cx="210.5" cy="37.1" r="3.4" fill="#8fd8ff" fill-opacity="0.47"/>
<circle cx="242.2" cy="32.7" r="3.4" fill="#8fd8ff" fill-opacity="0.77"/>
<circle cx="315.6" cy="34.8" r="3.4" fill="#8fd8ff" fill-opacity="0.51"/>
<circle cx="175.1" cy="32.7" r="3.4" fill="#8fd8ff" fill-opacity="0.60"/>
<circle cx="316.8" cy="30.0" r="3.4" fill="#8fd8ff" fill-opacity="0.72"/>
<circle cx="253.4" cy="32.3" r="3.4" fill="#8fd8ff" fill-opacity="0.47"/>
<circle cx="204.7" cy="27.6" r="3.4" fill="#8fd8ff" fill-opacity="0.72"/>
<circle cx="323.3" cy="28.6" r="3.4" fill="#8fd8ff" fill-opacity="0.60"/>
<circle cx="205.9" cy="28.4" r="3.4" fill="#8fd8ff" fill-opacity="0.55"/>
<circle cx="270.4" cy="23.8" r="3.4" fill="#8fd8ff" fill-opacity="0.73"/>
<circle cx="282.6" cy="26.7" r="3.4" fill="#8fd8ff" fill-opacity="0.53"/>
<circle cx="204.4" cy="23.3" r="3.4" fill="#8fd8ff" fill-opacity="0.65"/>
<circle cx="300.7" cy="22.0" r="3.4" fill="#8fd8ff" fill-opacity="0.66"/>
<circle cx="241.0" cy="23.3" r="3.4" fill="#8fd8ff" fill-opacity="0.55"/>
<circle cx="243.0" cy="19.1" r="3.4" fill="#8fd8ff" fill-opacity="0.68"/>
<circle cx="280.1" cy="20.2" r="3.4" fill="#8fd8ff" fill-opacity="0.60"/>
<circle cx="240.7" cy="18.7" r="3.4" fill="#8fd8ff" fill-opacity="0.61"/>

</g>
</svg>