<svg xmlns="http://www.w3.org/2000/svg" viewBox="0 0 64 64">
<!-- FIREPLACE — the network node as a COIN: dark disc + fibonacci dot
     sphere (golden angle 2.39996323, F=2.6, tilt .35). Transparent
     outside the disc: identical on white, black, or anything else. -->
<circle cx="32" cy="32" r="31" fill="#0d1420"/>
<circle cx="32" cy="32" r="30.5" fill="none" stroke="#23303f" stroke-width="1.5"/>
<circle cx="33.6" cy="52.3" r="0.85" fill="#8fd8ff" fill-opacity="0.33"/>
<circle cx="32.3" cy="48.1" r="0.85" fill="#8fd8ff" fill-opacity="0.18"/>
<circle cx="27.7" cy="53.0" r="0.85" fill="#8fd8ff" fill-opacity="0.37"/>
<circle cx="38.6" cy="50.1" r="0.85" fill="#8fd8ff" fill-opacity="0.29"/>
<circle cx="26.8" cy="47.0" r="0.85" fill="#8fd8ff" fill-opacity="0.18"/>
<circle cx="33.0" cy="55.5" r="1.35" fill="#8fd8ff" fill-opacity="0.48"/>
<circle cx="36.8" cy="45.4" r="0.85" fill="#8fd8ff" fill-opacity="0.13"/>
<circle cx="22.3" cy="50.3" r="0.85" fill="#8fd8ff" fill-opacity="0.34"/>
<circle cx="41.5" cy="52.4" r="0.85" fill="#8fd8ff" fill-opacity="0.42"/>
<circle cx="26.0" cy="55.5" r="1.35" fill="#8fd8ff" fill-opacity="0.54"/>
<circle cx="42.3" cy="45.7" r="0.85" fill="#8fd8ff" fill-opacity="0.21"/>
<circle cx="21.3" cy="45.3" r="0.85" fill="#8fd8ff" fill-opacity="0.21"/>
<circle cx="38.8" cy="55.7" r="1.35" fill="#8fd8ff" fill-opacity="0.57"/>
<circle cx="19.0" cy="51.5" r="1.35" fill="#8fd8ff" fill-opacity="0.48"/>
<circle cx="46.3" cy="48.3" r="0.85" fill="#8fd8ff" fill-opacity="0.38"/>
<circle cx="29.9" cy="56.8" r="1.35" fill="#8fd8ff" fill-opacity="0.65"/>
<circle cx="16.7" cy="45.4" r="0.85" fill="#8fd8ff" fill-opacity="0.32"/>
<circle cx="45.7" cy="52.5" r="1.35" fill="#8fd8ff" fill-opacity="0.58"/>
<circle cx="19.2" cy="53.3" r="1.35" fill="#8fd8ff" fill-opacity="0.62"/>
<circle cx="47.8" cy="43.1" r="0.85" fill="#8fd8ff" fill-opacity="0.29"/>
<circle cx="19.8" cy="39.8" r="0.85" fill="#8fd8ff" fill-opacity="0.14"/>
<circle cx="37.5" cy="55.9" r="1.35" fill="#8fd8ff" fill-opacity="0.72"/>
<circle cx="13.6" cy="46.5" r="1.35" fill="#8fd8ff" fill-opacity="0.48"/>
<circle cx="50.6" cy="47.2" r="1.35" fill="#8fd8ff" fill-opacity="0.52"/>
<circle cx="23.8" cy="54.6" r="1.35" fill="#8fd8ff" fill-opacity="0.74"/>
<circle cx="46.4" cy="38.2" r="0.85" fill="#8fd8ff" fill-opacity="0.17"/>
<circle cx="14.9" cy="39.7" r="0.85" fill="#8fd8ff" fill-opacity="0.27"/>
<circle cx="46.1" cy="52.0" r="1.35" fill="#8fd8ff" fill-opacity="0.71"/>
<circle cx="13.1" cy="48.3" r="1.35" fill="#8fd8ff" fill-opacity="0.64"/>
<circle cx="52.1" cy="41.3" r="0.85" fill="#8fd8ff" fill-opacity="0.41"/>
<circle cx="32.6" cy="53.9" r="1.35" fill="#8fd8ff" fill-opacity="0.81"/>
<circle cx="10.9" cy="40.5" r="0.85" fill="#8fd8ff" fill-opacity="0.44"/>
<circle cx="52.6" cy="46.0" r="1.35" fill="#8fd8ff" fill-opacity="0.65"/>
<circle cx="16.9" cy="49.7" r="1.35" fill="#8fd8ff" fill-opacity="0.78"/>
<circle cx="50.5" cy="35.8" r="0.85" fill="#8fd8ff" fill-opacity="0.27"/>
<circle cx="15.4" cy="34.4" r="0.85" fill="#8fd8ff" fill-opacity="0.20"/>
<circle cx="43.3" cy="50.1" r="1.35" fill="#8fd8ff" fill-opacity="0.83"/>
<circle cx="9.1" cy="41.8" r="1.35" fill="#8fd8ff" fill-opacity="0.61"/>
<circle cx="55.1" cy="39.5" r="1.35" fill="#8fd8ff" fill-opacity="0.54"/>
<circle cx="25.6" cy="49.3" r="1.35" fill="#8fd8ff" fill-opacity="0.87"/>
<circle cx="46.8" cy="31.4" r="0.85" fill="#8fd8ff" fill-opacity="0.15"/>
<circle cx="10.7" cy="34.5" r="0.85" fill="#8fd8ff" fill-opacity="0.37"/>
<circle cx="52.0" cy="44.0" r="1.35" fill="#8fd8ff" fill-opacity="0.77"/>
<circle cx="11.1" cy="42.8" r="1.35" fill="#8fd8ff" fill-opacity="0.77"/>
<circle cx="54.0" cy="33.6" r="0.85" fill="#8fd8ff" fill-opacity="0.40"/>
<circle cx="17.5" cy="29.5" r="0.85" fill="#8fd8ff" fill-opacity="0.14"/>
<circle cx="37.4" cy="46.2" r="1.35" fill="#8fd8ff" fill-opacity="0.90"/>
<circle cx="7.7" cy="35.0" r="1.35" fill="#8fd8ff" fill-opacity="0.56"/>
<circle cx="56.3" cy="37.1" r="1.35" fill="#8fd8ff" fill-opacity="0.67"/>
<circle cx="18.2" cy="42.6" r="1.35" fill="#8fd8ff" fill-opacity="0.88"/>
<circle cx="50.4" cy="28.8" r="0.85" fill="#8fd8ff" fill-opacity="0.26"/>
<circle cx="12.4" cy="29.0" r="0.85" fill="#8fd8ff" fill-opacity="0.31"/>
<circle cx="48.4" cy="40.5" r="1.35" fill="#8fd8ff" fill-opacity="0.87"/>
<circle cx="7.9" cy="35.3" r="1.35" fill="#8fd8ff" fill-opacity="0.73"/>
<circle cx="56.2" cy="30.9" r="1.35" fill="#8fd8ff" fill-opacity="0.54"/>
<circle cx="29.8" cy="40.0" r="1.35" fill="#8fd8ff" fill-opacity="0.94"/>
<circle cx="45.3" cy="25.0" r="0.85" fill="#8fd8ff" fill-opacity="0.15"/>
<circle cx="8.6" cy="28.6" r="1.35" fill="#8fd8ff" fill-opacity="0.49"/>
<circle cx="55.0" cy="33.7" r="1.35" fill="#8fd8ff" fill-opacity="0.78"/>
<circle cx="12.8" cy="34.6" r="1.35" fill="#8fd8ff" fill-opacity="0.86"/>
<circle cx="53.1" cy="25.9" r="0.85" fill="#8fd8ff" fill-opacity="0.40"/>
<circle cx="15.3" cy="24.1" r="0.85" fill="#8fd8ff" fill-opacity="0.26"/>
<circle cx="42.0" cy="34.9" r="1.35" fill="#8fd8ff" fill-opacity="0.93"/>
<circle cx="7.4" cy="28.0" r="1.35" fill="#8fd8ff" fill-opacity="0.66"/>
<circle cx="56.5" cy="27.5" r="1.35" fill="#8fd8ff" fill-opacity="0.66"/>
<circle cx="22.5" cy="32.0" r="1.35" fill="#8fd8ff" fill-opacity="0.93"/>
<circle cx="48.2" cy="22.0" r="0.85" fill="#8fd8ff" fill-opacity="0.28"/>
<circle cx="11.3" cy="22.9" r="0.85" fill="#8fd8ff" fill-opacity="0.43"/>
<circle cx="50.6" cy="28.7" r="1.35" fill="#8fd8ff" fill-opacity="0.86"/>
<circle cx="10.4" cy="26.5" r="1.35" fill="#8fd8ff" fill-opacity="0.80"/>
<circle cx="54.2" cy="22.4" r="1.35" fill="#8fd8ff" fill-opacity="0.53"/>
<circle cx="19.1" cy="19.7" r="0.85" fill="#8fd8ff" fill-opacity="0.24"/>
<circle cx="34.4" cy="27.5" r="1.35" fill="#8fd8ff" fill-opacity="0.95"/>
<circle cx="42.6" cy="18.9" r="0.85" fill="#8fd8ff" fill-opacity="0.21"/>
<circle cx="9.6" cy="21.4" r="1.35" fill="#8fd8ff" fill-opacity="0.60"/>
<circle cx="53.8" cy="22.7" r="1.35" fill="#8fd8ff" fill-opacity="0.76"/>
<circle cx="28.1" cy="17.6" r="0.85" fill="#8fd8ff" fill-opacity="0.15"/>
<circle cx="18.0" cy="23.5" r="1.35" fill="#8fd8ff" fill-opacity="0.89"/>
<circle cx="49.7" cy="18.4" r="0.85" fill="#8fd8ff" fill-opacity="0.41"/>
<circle cx="15.3" cy="17.9" r="0.85" fill="#8fd8ff" fill-opacity="0.39"/>
<circle cx="43.8" cy="21.9" r="1.35" fill="#8fd8ff" fill-opacity="0.90"/>
<circle cx="36.8" cy="16.3" r="0.85" fill="#8fd8ff" fill-opacity="0.19"/>
<circle cx="11.6" cy="19.1" r="1.35" fill="#8fd8ff" fill-opacity="0.74"/>
<circle cx="52.5" cy="17.9" r="1.35" fill="#8fd8ff" fill-opacity="0.64"/>
<circle cx="23.3" cy="15.6" r="0.85" fill="#8fd8ff" fill-opacity="0.26"/>
<circle cx="28.1" cy="19.2" r="1.35" fill="#8fd8ff" fill-opacity="0.91"/>
<circle cx="44.2" cy="15.2" r="0.85" fill="#8fd8ff" fill-opacity="0.34"/>
<circle cx="13.9" cy="15.7" r="1.35" fill="#8fd8ff" fill-opacity="0.55"/>
<circle cx="47.9" cy="16.7" r="1.35" fill="#8fd8ff" fill-opacity="0.81"/>
<circle cx="31.6" cy="13.9" r="0.85" fill="#8fd8ff" fill-opacity="0.24"/>
<circle cx="17.7" cy="15.7" r="1.35" fill="#8fd8ff" fill-opacity="0.82"/>
<circle cx="48.3" cy="14.0" r="1.35" fill="#8fd8ff" fill-opacity="0.54"/>
<circle cx="20.3" cy="13.2" r="0.85" fill="#8fd8ff" fill-opacity="0.40"/>
<circle cx="36.4" cy="14.3" r="1.35" fill="#8fd8ff" fill-opacity="0.87"/>
<circle cx="38.6" cy="12.4" r="0.85" fill="#8fd8ff" fill-opacity="0.34"/>
<circle cx="16.4" cy="12.6" r="1.35" fill="#8fd8ff" fill-opacity="0.67"/>
<circle cx="46.7" cy="12.3" r="1.35" fill="#8fd8ff" fill-opacity="0.71"/>
<circle cx="27.6" cy="11.4" r="0.85" fill="#8fd8ff" fill-opacity="0.36"/>
<circle cx="26.1" cy="11.5" r="1.35" fill="#8fd8ff" fill-opacity="0.83"/>
<circle cx="42.5" cy="10.7" r="1.35" fill="#8fd8ff" fill-opacity="0.49"/>
<circle cx="20.9" cy="10.4" r="1.35" fill="#8fd8ff" fill-opacity="0.54"/>
<circle cx="39.1" cy="9.9" r="1.35" fill="#8fd8ff" fill-opacity="0.78"/>
<circle cx="33.7" cy="9.6" r="0.85" fill="#8fd8ff" fill-opacity="0.42"/>
<circle cx="23.6" cy="9.0" r="1.35" fill="#8fd8ff" fill-opacity="0.71"/>
<circle cx="40.6" cy="8.6" r="1.35" fill="#8fd8ff" fill-opacity="0.63"/>
<circle cx="27.5" cy="8.4" r="1.35" fill="#8fd8ff" fill-opacity="0.52"/>
<circle cx="31.9" cy="7.5" r="1.35" fill="#8fd8ff" fill-opacity="0.72"/>
<circle cx="34.2" cy="7.4" r="1.35" fill="#8fd8ff" fill-opacity="0.58"/>
</svg>