<svg xmlns="http://www.w3.org/2000/svg" viewBox="0 0 64 64">
<!-- FIREPLACE — the network node: a pure fibonacci dot sphere.
     golden angle 2.39996323, N=130, perspective F=2.6, tilt .35. -->
<defs>
  <radialGradient id="glow" cx="50%" cy="50%" r="50%">
    <stop offset="0%" stop-color="#3c78a0" stop-opacity=".16"/>
    <stop offset="70%" stop-color="#3c78a0" stop-opacity=".05"/>
    <stop offset="100%" stop-color="#3c78a0" stop-opacity="0"/>
  </radialGradient>
</defs>
<rect width="64" height="64" fill="#000"/>
<circle cx="32" cy="32" r="30.72" fill="url(#glow)"/>
<circle cx="33.7" cy="53.1" r="0.85" fill="#8fd8ff" fill-opacity="0.33"/>
<circle cx="32.3" cy="48.8" r="0.85" fill="#8fd8ff" fill-opacity="0.18"/>
<circle cx="27.5" cy="53.9" r="0.85" fill="#8fd8ff" fill-opacity="0.37"/>
<circle cx="38.9" cy="50.9" r="0.85" fill="#8fd8ff" fill-opacity="0.29"/>
<circle cx="26.6" cy="47.7" r="0.85" fill="#8fd8ff" fill-opacity="0.18"/>
<circle cx="33.0" cy="56.5" r="1.35" fill="#8fd8ff" fill-opacity="0.48"/>
<circle cx="37.0" cy="46.0" r="0.85" fill="#8fd8ff" fill-opacity="0.13"/>
<circle cx="21.9" cy="51.1" r="0.85" fill="#8fd8ff" fill-opacity="0.34"/>
<circle cx="41.9" cy="53.3" r="0.85" fill="#8fd8ff" fill-opacity="0.42"/>
<circle cx="25.8" cy="56.5" r="1.35" fill="#8fd8ff" fill-opacity="0.54"/>
<circle cx="42.8" cy="46.3" r="0.85" fill="#8fd8ff" fill-opacity="0.21"/>
<circle cx="20.9" cy="45.9" r="0.85" fill="#8fd8ff" fill-opacity="0.21"/>
<circle cx="39.1" cy="56.7" r="1.35" fill="#8fd8ff" fill-opacity="0.57"/>
<circle cx="18.4" cy="52.3" r="1.35" fill="#8fd8ff" fill-opacity="0.48"/>
<circle cx="46.9" cy="49.0" r="0.85" fill="#8fd8ff" fill-opacity="0.38"/>
<circle cx="29.8" cy="57.9" r="1.35" fill="#8fd8ff" fill-opacity="0.65"/>
<circle cx="16.1" cy="45.9" r="0.85" fill="#8fd8ff" fill-opacity="0.32"/>
<circle cx="46.2" cy="53.4" r="1.35" fill="#8fd8ff" fill-opacity="0.58"/>
<circle cx="18.6" cy="54.3" r="1.35" fill="#8fd8ff" fill-opacity="0.62"/>
<circle cx="48.5" cy="43.6" r="0.85" fill="#8fd8ff" fill-opacity="0.29"/>
<circle cx="19.2" cy="40.1" r="0.85" fill="#8fd8ff" fill-opacity="0.14"/>
<circle cx="37.7" cy="56.9" r="1.35" fill="#8fd8ff" fill-opacity="0.72"/>
<circle cx="12.8" cy="47.2" r="1.35" fill="#8fd8ff" fill-opacity="0.48"/>
<circle cx="51.4" cy="47.9" r="1.35" fill="#8fd8ff" fill-opacity="0.52"/>
<circle cx="23.4" cy="55.6" r="1.35" fill="#8fd8ff" fill-opacity="0.74"/>
<circle cx="47.0" cy="38.5" r="0.85" fill="#8fd8ff" fill-opacity="0.17"/>
<circle cx="14.1" cy="40.1" r="0.85" fill="#8fd8ff" fill-opacity="0.27"/>
<circle cx="46.8" cy="52.9" r="1.35" fill="#8fd8ff" fill-opacity="0.71"/>
<circle cx="12.3" cy="49.0" r="1.35" fill="#8fd8ff" fill-opacity="0.64"/>
<circle cx="53.0" cy="41.7" r="0.85" fill="#8fd8ff" fill-opacity="0.41"/>
<circle cx="32.7" cy="54.8" r="1.35" fill="#8fd8ff" fill-opacity="0.81"/>
<circle cx="10.0" cy="40.9" r="0.85" fill="#8fd8ff" fill-opacity="0.44"/>
<circle cx="53.5" cy="46.6" r="1.35" fill="#8fd8ff" fill-opacity="0.65"/>
<circle cx="16.2" cy="50.4" r="1.35" fill="#8fd8ff" fill-opacity="0.78"/>
<circle cx="51.3" cy="36.0" r="0.85" fill="#8fd8ff" fill-opacity="0.27"/>
<circle cx="14.7" cy="34.5" r="0.85" fill="#8fd8ff" fill-opacity="0.20"/>
<circle cx="43.8" cy="50.9" r="1.35" fill="#8fd8ff" fill-opacity="0.83"/>
<circle cx="8.1" cy="42.2" r="1.35" fill="#8fd8ff" fill-opacity="0.61"/>
<circle cx="56.1" cy="39.8" r="1.35" fill="#8fd8ff" fill-opacity="0.54"/>
<circle cx="25.3" cy="50.1" r="1.35" fill="#8fd8ff" fill-opacity="0.87"/>
<circle cx="47.4" cy="31.3" r="0.85" fill="#8fd8ff" fill-opacity="0.15"/>
<circle cx="9.8" cy="34.6" r="0.85" fill="#8fd8ff" fill-opacity="0.37"/>
<circle cx="52.9" cy="44.5" r="1.35" fill="#8fd8ff" fill-opacity="0.77"/>
<circle cx="10.2" cy="43.3" r="1.35" fill="#8fd8ff" fill-opacity="0.77"/>
<circle cx="55.0" cy="33.6" r="0.85" fill="#8fd8ff" fill-opacity="0.40"/>
<circle cx="16.9" cy="29.4" r="0.85" fill="#8fd8ff" fill-opacity="0.14"/>
<circle cx="37.7" cy="46.8" r="1.35" fill="#8fd8ff" fill-opacity="0.90"/>
<circle cx="6.6" cy="35.1" r="1.35" fill="#8fd8ff" fill-opacity="0.56"/>
<circle cx="57.4" cy="37.4" r="1.35" fill="#8fd8ff" fill-opacity="0.67"/>
<circle cx="17.6" cy="43.0" r="1.35" fill="#8fd8ff" fill-opacity="0.88"/>
<circle cx="51.2" cy="28.6" r="0.85" fill="#8fd8ff" fill-opacity="0.26"/>
<circle cx="11.5" cy="28.9" r="0.85" fill="#8fd8ff" fill-opacity="0.31"/>
<circle cx="49.1" cy="40.8" r="1.35" fill="#8fd8ff" fill-opacity="0.87"/>
<circle cx="6.8" cy="35.4" r="1.35" fill="#8fd8ff" fill-opacity="0.73"/>
<circle cx="57.3" cy="30.9" r="1.35" fill="#8fd8ff" fill-opacity="0.54"/>
<circle cx="29.7" cy="40.3" r="1.35" fill="#8fd8ff" fill-opacity="0.94"/>
<circle cx="45.9" cy="24.7" r="0.85" fill="#8fd8ff" fill-opacity="0.15"/>
<circle cx="7.6" cy="28.5" r="1.35" fill="#8fd8ff" fill-opacity="0.49"/>
<circle cx="56.0" cy="33.8" r="1.35" fill="#8fd8ff" fill-opacity="0.78"/>
<circle cx="11.9" cy="34.7" r="1.35" fill="#8fd8ff" fill-opacity="0.86"/>
<circle cx="54.0" cy="25.6" r="0.85" fill="#8fd8ff" fill-opacity="0.40"/>
<circle cx="14.6" cy="23.7" r="0.85" fill="#8fd8ff" fill-opacity="0.26"/>
<circle cx="42.5" cy="35.0" r="1.35" fill="#8fd8ff" fill-opacity="0.93"/>
<circle cx="6.4" cy="27.8" r="1.35" fill="#8fd8ff" fill-opacity="0.66"/>
<circle cx="57.5" cy="27.3" r="1.35" fill="#8fd8ff" fill-opacity="0.66"/>
<circle cx="22.1" cy="32.0" r="1.35" fill="#8fd8ff" fill-opacity="0.93"/>
<circle cx="48.9" cy="21.5" r="0.85" fill="#8fd8ff" fill-opacity="0.28"/>
<circle cx="10.4" cy="22.6" r="0.85" fill="#8fd8ff" fill-opacity="0.43"/>
<circle cx="51.5" cy="28.5" r="1.35" fill="#8fd8ff" fill-opacity="0.86"/>
<circle cx="9.5" cy="26.2" r="1.35" fill="#8fd8ff" fill-opacity="0.80"/>
<circle cx="55.1" cy="22.0" r="1.35" fill="#8fd8ff" fill-opacity="0.53"/>
<circle cx="18.5" cy="19.2" r="0.85" fill="#8fd8ff" fill-opacity="0.24"/>
<circle cx="34.5" cy="27.3" r="1.35" fill="#8fd8ff" fill-opacity="0.95"/>
<circle cx="43.1" cy="18.3" r="0.85" fill="#8fd8ff" fill-opacity="0.21"/>
<circle cx="8.6" cy="21.0" r="1.35" fill="#8fd8ff" fill-opacity="0.60"/>
<circle cx="54.8" cy="22.3" r="1.35" fill="#8fd8ff" fill-opacity="0.76"/>
<circle cx="27.9" cy="17.0" r="0.85" fill="#8fd8ff" fill-opacity="0.15"/>
<circle cx="17.4" cy="23.2" r="1.35" fill="#8fd8ff" fill-opacity="0.89"/>
<circle cx="50.5" cy="17.8" r="0.85" fill="#8fd8ff" fill-opacity="0.41"/>
<circle cx="14.5" cy="17.3" r="0.85" fill="#8fd8ff" fill-opacity="0.39"/>
<circle cx="44.3" cy="21.5" r="1.35" fill="#8fd8ff" fill-opacity="0.90"/>
<circle cx="37.1" cy="15.6" r="0.85" fill="#8fd8ff" fill-opacity="0.19"/>
<circle cx="10.7" cy="18.5" r="1.35" fill="#8fd8ff" fill-opacity="0.74"/>
<circle cx="53.4" cy="17.3" r="1.35" fill="#8fd8ff" fill-opacity="0.64"/>
<circle cx="22.9" cy="14.9" r="0.85" fill="#8fd8ff" fill-opacity="0.26"/>
<circle cx="28.0" cy="18.7" r="1.35" fill="#8fd8ff" fill-opacity="0.91"/>
<circle cx="44.8" cy="14.5" r="0.85" fill="#8fd8ff" fill-opacity="0.34"/>
<circle cx="13.1" cy="14.9" r="1.35" fill="#8fd8ff" fill-opacity="0.55"/>
<circle cx="48.6" cy="16.0" r="1.35" fill="#8fd8ff" fill-opacity="0.81"/>
<circle cx="31.5" cy="13.1" r="0.85" fill="#8fd8ff" fill-opacity="0.24"/>
<circle cx="17.1" cy="15.0" r="1.35" fill="#8fd8ff" fill-opacity="0.82"/>
<circle cx="49.1" cy="13.2" r="1.35" fill="#8fd8ff" fill-opacity="0.54"/>
<circle cx="19.8" cy="12.4" r="0.85" fill="#8fd8ff" fill-opacity="0.40"/>
<circle cx="36.6" cy="13.6" r="1.35" fill="#8fd8ff" fill-opacity="0.87"/>
<circle cx="38.9" cy="11.6" r="0.85" fill="#8fd8ff" fill-opacity="0.34"/>
<circle cx="15.7" cy="11.8" r="1.35" fill="#8fd8ff" fill-opacity="0.67"/>
<circle cx="47.3" cy="11.4" r="1.35" fill="#8fd8ff" fill-opacity="0.71"/>
<circle cx="27.5" cy="10.5" r="0.85" fill="#8fd8ff" fill-opacity="0.36"/>
<circle cx="25.8" cy="10.6" r="1.35" fill="#8fd8ff" fill-opacity="0.83"/>
<circle cx="43.0" cy="9.8" r="1.35" fill="#8fd8ff" fill-opacity="0.49"/>
<circle cx="20.4" cy="9.4" r="1.35" fill="#8fd8ff" fill-opacity="0.54"/>
<circle cx="39.4" cy="8.9" r="1.35" fill="#8fd8ff" fill-opacity="0.78"/>
<circle cx="33.7" cy="8.6" r="0.85" fill="#8fd8ff" fill-opacity="0.42"/>
<circle cx="23.2" cy="8.0" r="1.35" fill="#8fd8ff" fill-opacity="0.71"/>
<circle cx="41.0" cy="7.6" r="1.35" fill="#8fd8ff" fill-opacity="0.63"/>
<circle cx="27.3" cy="7.3" r="1.35" fill="#8fd8ff" fill-opacity="0.52"/>
<circle cx="31.9" cy="6.5" r="1.35" fill="#8fd8ff" fill-opacity="0.72"/>
<circle cx="34.2" cy="6.4" r="1.35" fill="#8fd8ff" fill-opacity="0.58"/>
</svg>